<svg id="Capa_1" enable-background="new 0 0 512 512" height="512" viewBox="0 0 512 512" width="512" xmlns="http://www.w3.org/2000/svg"><g><path d="m152 15c-17.673 0-32 14.327-32 32v418c0 17.673 14.327 32 32 32h104l50.021-247.489-50.021-234.511z" fill="#e7f2ff"/><path d="m360 15h-104v482h104c17.673 0 32-14.327 32-32v-418c0-17.673-14.327-32-32-32z" fill="#d0e8ff"/><g><path d="m152 482c-9.374 0-17-7.626-17-17v-418c0-9.374 7.626-17 17-17h104l13.085-12.66-13.085-17.34h-104c-25.916 0-47 21.084-47 47v418c0 25.916 21.084 47 47 47h104l15.979-18.404-15.979-11.596z" fill="#3f5c83"/></g><g><path d="m360 0h-104v30h104c9.374 0 17 7.626 17 17v418c0 9.374-7.626 17-17 17h-104v30h104c25.916 0 47-21.084 47-47v-418c0-25.916-21.084-47-47-47z" fill="#37406a"/></g><g><path d="m248 425c-8.284 0-15 6.716-15 15s6.716 15 15 15h8l11.5-14.898-11.5-15.102z" fill="#3f5c83"/></g><g><path d="m279 440c0-8.284-6.716-15-15-15h-8v30h8c8.284 0 15-6.716 15-15z" fill="#37406a"/></g><g><path d="m241 72.002c0 8.284 6.716 15 15 15l6.957-14.513-6.957-15.487c-8.284 0-15 6.716-15 15z" fill="#3f5c83"/></g><g><path d="m271 72.002c0-8.284-6.716-15-15-15v30c8.284 0 15-6.715 15-15z" fill="#37406a"/></g><g><path d="m205.796 283.009c5.858 5.857 15.356 5.857 21.213-.001 7.744-7.743 18.039-12.008 28.991-12.008l10.872-12.979-10.872-17.021c-18.965 0-36.794 7.385-50.205 20.796-5.857 5.858-5.857 15.355.001 21.213z" fill="#ff5aad"/></g><g><path d="m284.991 283.009c2.929 2.929 6.768 4.394 10.607 4.394 3.838 0 7.678-1.465 10.606-4.393 5.858-5.858 5.858-15.355 0-21.213-13.41-13.412-31.239-20.797-50.204-20.797v30c10.952 0 21.247 4.265 28.991 12.009z" fill="#ff3a96"/></g><g><path d="m166.197 222.198c-5.857 5.858-5.857 15.355.001 21.213 5.857 5.857 15.355 5.858 21.213-.001 18.32-18.32 42.679-28.41 68.589-28.41l20.064-10.766-20.064-19.234c-33.923 0-65.816 13.21-89.803 37.198z" fill="#ff5aad"/></g><g><path d="m345.803 222.198c-23.987-23.988-55.88-37.198-89.803-37.198v30c25.91 0 50.269 10.09 68.589 28.411 2.93 2.929 6.768 4.394 10.607 4.394 3.838 0 7.678-1.465 10.606-4.393 5.858-5.859 5.858-15.356.001-21.214z" fill="#ff3a96"/></g><g><path d="m241 312.001c0 8.284 6.716 15 15 15l6.617-15-6.617-15c-8.284 0-15 6.716-15 15z" fill="#ff5aad"/></g><g><path d="m271 312.001c0-8.284-6.716-15-15-15v30c8.284 0 15-6.716 15-15z" fill="#ff3a96"/></g></g></svg>