<svg height="480pt" viewBox="0 0 480 480" width="480pt" xmlns="http://www.w3.org/2000/svg"><path d="m248 192v280h-72v-32l-32-240v-8zm0 0" fill="#d1d3d4"/><path d="m152 200v-80h-112v80l-32 240v32h176v-32zm0 0" fill="#bcbec0"/><path d="m472 312v160h-240v-208h48l16 48h32v-48h48l16 48zm0 0" fill="#ff6243"/><path d="m264 344h32v48h-32zm0 0" fill="#e6e7e8"/><path d="m336 344h32v48h-32zm0 0" fill="#e6e7e8"/><path d="m472 312v160h-192.800781c61.800781-43.335938 115.203125-97.554688 157.601562-160zm0 0" fill="#ff5023"/><path d="m408 344h32v48h-32zm0 0" fill="#e6e7e8"/><path d="m112 80v16h16v-16c0-4.417969 3.582031-8 8-8h32c13.253906 0 24-10.746094 24-24v-16h-16v16c0 4.417969-3.582031 8-8 8h-32c-13.253906 0-24 10.746094-24 24zm0 0"/><path d="m88 48c0-4.417969 3.582031-8 8-8h32c13.253906 0 24-10.746094 24-24v-16h-16v16c0 4.417969-3.582031 8-8 8h-32c-13.253906 0-24 10.746094-24 24v16h16zm0 0"/><path d="m216 152v16h16v-16c0-4.417969 3.582031-8 8-8h32c13.253906 0 24-10.746094 24-24v-16h-16v16c0 4.417969-3.582031 8-8 8h-32c-13.253906 0-24 10.746094-24 24zm0 0"/><path d="m176 120v16h16v-16c0-4.417969 3.582031-8 8-8h32c13.253906 0 24-10.746094 24-24v-16h-16v16c0 4.417969-3.582031 8-8 8h-32c-13.253906 0-24 10.746094-24 24zm0 0"/><path d="m472 304h-74.230469l-14.183593-42.527344c-1.089844-3.265625-4.144532-5.46875-7.585938-5.472656h-48c-4.417969 0-8 3.582031-8 8v40h-18.230469l-14.183593-42.527344c-1.089844-3.265625-4.144532-5.46875-7.585938-5.472656h-16v-64c0-4.417969-3.582031-8-8-8h-96v-64c0-4.417969-3.582031-8-8-8h-112c-4.417969 0-8 3.582031-8 8v79.472656l-31.9296875 239.472656c-.046875.347657-.0703125.703126-.0703125 1.054688v32c0 4.417969 3.582031 8 8 8h464c4.417969 0 8-3.582031 8-8v-160c0-4.417969-3.582031-8-8-8zm-456 136.527344 31.929688-239.472656c.046874-.347657.070312-.703126.070312-1.054688v-72h96v72c0 .351562.023438.707031.070312 1.054688l31.929688 239.472656v23.472656h-160zm208-176.527344v200h-32v-24c0-.351562-.023438-.707031-.070312-1.054688l-31.859376-238.945312h87.929688v56h-16c-4.417969 0-8 3.582031-8 8zm240 200h-224v-192h34.230469l14.183593 42.527344c1.089844 3.265625 4.144532 5.46875 7.585938 5.472656h32c4.417969 0 8-3.582031 8-8v-40h34.230469l14.183593 42.527344c1.089844 3.265625 4.144532 5.46875 7.585938 5.472656h72zm0 0"/><path d="m296 336h-32c-4.417969 0-8 3.582031-8 8v48c0 4.417969 3.582031 8 8 8h32c4.417969 0 8-3.582031 8-8v-48c0-4.417969-3.582031-8-8-8zm-8 48h-16v-32h16zm0 0"/><path d="m368 336h-32c-4.417969 0-8 3.582031-8 8v48c0 4.417969 3.582031 8 8 8h32c4.417969 0 8-3.582031 8-8v-48c0-4.417969-3.582031-8-8-8zm-8 48h-16v-32h16zm0 0"/><path d="m408 400h32c4.417969 0 8-3.582031 8-8v-48c0-4.417969-3.582031-8-8-8h-32c-4.417969 0-8 3.582031-8 8v48c0 4.417969 3.582031 8 8 8zm8-48h16v32h-16zm0 0"/><path d="m280 72h16v16h-16zm0 0"/></svg>