<svg id="color" height="512" viewBox="0 0 24 24" width="512" xmlns="http://www.w3.org/2000/svg"><path d="m15.482 4.5h-6.964c-1.556 0-2.754.808-3.126 2.107l-.898 3.143h15.012l-.897-3.143c-.373-1.299-1.571-2.107-3.127-2.107z" fill="#fff"/><path d="m21.221 10.294-1.171-4.099c-.555-1.941-2.348-3.195-4.568-3.195h-6.964c-2.22 0-4.013 1.254-4.568 3.195l-1.171 4.099c-.065.227-.02.47.122.658s.364.298.599.298h17c.235 0 .457-.11.599-.298.141-.188.187-.431.122-.658zm-16.727-.544.897-3.143c.373-1.299 1.571-2.107 3.127-2.107h6.965c1.556 0 2.754.808 3.126 2.107l.897 3.143z" fill="#cfd8dc"/><path d="m18.823 8.749c-4.527-1.327-9.119-1.327-13.646 0-2.018.591-3.427 2.471-3.427 4.57v2.681c0 .414.336.75.75.75h19c.414 0 .75-.336.75-.75v-2.681c0-2.099-1.409-3.979-3.427-4.57z" fill="#607d8b"/><path d="m14.25 14h-4.5c-.414 0-.75-.336-.75-.75s.336-.75.75-.75h4.5c.414 0 .75.336.75.75s-.336.75-.75.75z" fill="#cfd8dc"/><path d="m14.25 11.5h-4.5c-.414 0-.75-.336-.75-.75s.336-.75.75-.75h4.5c.414 0 .75.336.75.75s-.336.75-.75.75z" fill="#cfd8dc"/><path d="m5.25 15.5h-2.5c-.414 0-.75.336-.75.75v2.75c0 1.103.897 2 2 2s2-.897 2-2v-2.75c0-.414-.336-.75-.75-.75z" fill="#607d8b"/><path d="m21.25 15.5h-2.5c-.414 0-.75.336-.75.75v2.75c0 1.103.897 2 2 2s2-.897 2-2v-2.75c0-.414-.336-.75-.75-.75z" fill="#607d8b"/><path d="m6.5 11c-.827 0-1.5.673-1.5 1.5s.673 1.5 1.5 1.5 1.5-.673 1.5-1.5-.673-1.5-1.5-1.5z" fill="#fff"/><circle cx="17.5" cy="12.5" fill="#fff" r="1.5"/><path d="m23.25 17h-22.5c-.414 0-.75-.336-.75-.75s.336-.75.75-.75h22.5c.414 0 .75.336.75.75s-.336.75-.75.75z" fill="#cfd8dc"/><path d="m12 4.5h-3.482c-1.556 0-2.754.808-3.126 2.107l-.656 2.295c.143-.058.29-.109.441-.153 2.263-.664 4.543-.995 6.823-.995z" fill="#dedede"/><path d="m12 3h-3.482c-2.22 0-4.013 1.254-4.568 3.195l-1.171 4.099c-.01.036-.018.073-.023.109.509-.656 1.188-1.181 1.98-1.501l.655-2.295c.373-1.299 1.571-2.107 3.127-2.107h3.482z" fill="#b4bcc0"/><path d="m6.5 14c-.827 0-1.5-.673-1.5-1.5s.673-1.5 1.5-1.5 1.5.673 1.5 1.5-.673 1.5-1.5 1.5zm5.5-6.246c-2.28 0-4.56.332-6.823.995-.151.044-.297.095-.441.153-.792.32-1.471.846-1.98 1.501-.635.817-1.006 1.837-1.006 2.915v2.182h10.25v-1.5h-2.25c-.414 0-.75-.336-.75-.75s.336-.75.75-.75h2.25v-1h-2.25c-.414 0-.75-.336-.75-.75s.336-.75.75-.75h2.25z" fill="#546d79"/><path d="m12 12.5h-2.25c-.414 0-.75.336-.75.75s.336.75.75.75h2.25z" fill="#b4bcc0"/><path d="m12 10h-2.25c-.414 0-.75.336-.75.75s.336.75.75.75h2.25z" fill="#b4bcc0"/><path d="m6 17h-4v2c0 1.103.897 2 2 2s2-.897 2-2z" fill="#546d79"/><path d="m6.5 11c-.827 0-1.5.673-1.5 1.5s.673 1.5 1.5 1.5 1.5-.673 1.5-1.5-.673-1.5-1.5-1.5z" fill="#dedede"/><path d="m12 15.5h-10.25-1c-.414 0-.75.336-.75.75s.336.75.75.75h1.25 4 6z" fill="#b4bcc0"/></svg>