<svg xmlns="http://www.w3.org/2000/svg" version="1.1" xmlns:xlink="http://www.w3.org/1999/xlink" xmlns:svgjs="http://svgjs.com/svgjs" width="512" height="512" x="0" y="0" viewBox="0 0 446.971 446.971" style="enable-background:new 0 0 512 512" xml:space="preserve" class=""><g><path d="M305.6 362.979c-56.8 0-102.8-46-102.8-102.8s46-102.8 102.8-102.8 102.8 46 102.8 102.8c0 27.2-10.8 53.6-30 72.8-19.2 19.2-45.6 30-72.8 30z" style="" fill="#30a149" data-original="#ffe64c" class=""></path><path d="M286 250.979c-7.6-2-12.8-8.8-12.4-16.4 0-11.2 8.8-20.8 22.4-24l7.6-1.6v46.4l-17.6-4.4zM307.6 261.379l7.2 1.6c9.2 2 24 5.6 24 22.8 0 12-9.2 21.2-24.4 23.6l-6.8 1.2v-49.2z" style="" fill="#30a149" data-original="#ffe64c" class=""></path><path d="M305.6 391.779c-34.8 0-68.4-13.6-93.2-38.4-40.4-40.4-50-102.4-24-153.2 14.8-28.8 39.2-51.2 69.2-62.8h.4c15.2-5.6 31.2-8.8 47.2-8.8 34.8 0 68.4 14 93.2 38.4 51.6 51.2 51.6 134.8 0 186.4-24.4 24.4-58 38.4-92.8 38.4zm0-238.8c-59.2 0-107.2 48-107.2 107.2s48 107.2 107.2 107.2 107.2-48 107.2-107.2c-.4-59.2-48.4-107.2-107.2-107.2zM132.8 153.779c-34.8 0-81.2-6.8-106.8-25.2h-.4l-.8-.4c-10.8-8-15.6-16.8-14.4-26 1.6-12 13.6-23.2 35.2-32 23.2-9.6 54.4-14.8 87.2-14.8s64 5.2 87.2 14.8c21.6 8.8 33.6 20 35.2 32 1.2 9.6-4 18.4-15.6 26.4-26 18.4-71.6 25.2-105.6 25.6h-1.2v-.4z" style="" fill="#30a149" data-original="#ffe64c" class=""></path><path d="M126.4 205.379c-33.2-.4-77.2-8-100.4-25.2-7.6-5.2-16-12.8-16-24 0-7.2 3.6-14 11.2-20.4l3.2-2.8 3.6 2.4c24 14.8 62 23.2 104.8 23.2h5.2c24.8-.4 49.6-4.4 73.6-11.6l6 10.4c-13.6 11.6-24.8 25.6-32.8 41.6l-1.6 2.8-31.6 2.8-25.2.8z" style="" fill="#eab43b" data-original="#eab43b" class=""></path><path d="M135.2 256.579c-32.8 0-58-3.6-82-12-10-3.2-19.2-8-28-13.6l-.4-.4c-9.6-7.2-14.8-14.8-14.8-23.2 0-7.2 3.6-14 11.2-20.4l3.2-2.8 3.6 2.4c13.2 7.6 27.2 12.8 41.6 16 20.4 4.8 40.8 7.2 61.6 6.8 11.6 0 23.2-.8 34.8-2l4.8-.8 9.6-1.2-3.2 9.2c-4 11.2-6.4 22.8-7.2 34.8l-.4 5.2-27.6 2h-6.8z" style="" fill="#eab43b" data-original="#eab43b" class=""></path><path d="M132.8 308.179c-33.2 0-64-5.2-87.6-14.8-14.4-6-32.4-16.4-34.8-31.2-1.6-8.4 2.4-16.4 10.8-24l3.2-2.8 3.6 2.4c14.4 8.8 36 16 59.6 19.6l18.4 2.4 39.6.8 23.2-1.6v6.4c.4 11.2 2 22.4 5.2 33.2l2 6.8-6.8.8c-11.6 1.2-24 2-36.4 2z" style="" fill="#eab43b" data-original="#eab43b" class=""></path><path d="m28.4 122.979 1.2.8c13.2 8.4 27.6 14.4 42.8 17.6 15.2 3.2 31.2 5.6 46.8 6 6.8.4 20 .4 26.4 0 16-.8 31.6-2.8 47.2-6.4 15.2-3.2 30-9.2 42.8-17.6l.8-.4c8-6 12.4-12 12.4-18.8 0-10.8-12-20.8-31.6-28.8-21.6-8.8-51.6-14.4-85.2-14.4s-62.8 5.6-84.4 14.4c-19.6 8-31.6 18.4-31.6 28.8 0 6.8 4.4 13.2 12.4 18.8zm268.8 124.8v-31.2c-3.6.8-6.8 2.4-10 4.4-4.8 2.8-7.6 8-7.6 13.6 0 2.4.4 4.8 1.6 6.4 1.6 2 4 3.2 6.4 4s4.8 1.6 7.6 2l2 .8zm16 21.2v34.4c4-.8 8-2 11.6-4.4 4.8-2.8 8-8 7.6-13.2.4-5.2-2.4-10-6.8-12.8-3.6-1.6-7.6-3.2-12.4-4zm-16-84c0-4.4 3.6-8 8-8s8 3.6 8 8v12.4c10 .4 19.6 2.4 28.4 6.4 4.8 2.4 7.2 5.2 7.2 8.8 0 6.8-3.2 10-9.2 10-4.4-.8-8.4-2-12.4-3.6-4.4-1.6-9.2-2.4-14-2.8v34.4c10 1.2 19.6 4.8 28.4 9.6 8 5.2 12 13.6 12 24.8.4 11.2-4.8 21.6-13.6 28-7.6 5.6-16.8 8.8-26.4 9.6v12.4c0 4.4-3.6 8-8 8s-8-3.6-8-8v-12c-8.4-.4-16.8-2-24.8-4.8-10-3.2-15.2-7.2-15.2-11.2 0-7.6 3.2-11.2 9.2-11.2 5.2.8 10.4 2.4 15.2 4 5.2 1.6 10.4 2.8 15.6 3.6v-37.2c-2.8-.4-4.8-.8-6.8-1.2-4-.8-8-2-11.6-3.2-4-1.2-7.2-3.2-10.8-5.6-6.4-5.2-10-12.8-10-20.8 0-10.8 5.6-21.2 14.4-27.2 7.2-5.2 15.2-8.8 24-10l.4-13.2zm76.8 6.4c-38-38-99.2-38-137.2 0s-38 99.2 0 137.2 99.2 38 137.2 0c18-18 28.4-42.8 28.4-68.4 0-26-10-50.8-28.4-68.8zm-68.4-44.4c62.4 0 113.2 50.8 113.2 113.2s-50.8 113.2-113.2 113.2-113.2-50.8-113.2-113.2c0-30 12-58.8 33.2-80 21.2-21.2 50-33.2 80-33.2zm-126.4 48.4c6.8-13.2 15.6-25.2 26-35.6 2.8-2.8 5.6-5.2 8.4-7.6-5.2 2-10.8 3.2-16.8 4.8l-2 .4-2 .4c-16 3.2-32.4 5.2-48.8 6h-18c-19.2 0-38.8-2.4-57.6-7.2-15.2-3.2-30-9.2-43.6-16.8-2.4 2-4.4 4.4-6 6.8-2 2.8-2.8 5.6-2.8 8.8 0 6.4 4.4 12.8 12.4 18.8l1.2.8c13.2 8.4 27.6 14.4 42.8 17.6 15.2 3.6 31.2 6 47.2 6.4 19.6.4 40-.8 59.6-3.6zm-15.2 53.6c1.6-12 4-24 7.6-36-15.2 2-30.4 2.8-45.6 2.4-19.2-.4-38.8-2.8-57.6-7.2-15.2-3.6-30-9.2-43.6-17.2-2.4 2-4.4 4.4-6 6.8-2 2.8-2.8 6-2.8 9.2 0 6.4 4 13.2 12.4 18.8 14.8 9.6 32 18.4 67.6 22.4 22.8 3.2 45.6 3.2 68 .8zm5.2 50.8c-2.8-9.6-4.4-19.6-5.2-29.6l-.4-4.8c-19.2 1.6-38.4 1.6-57.6.4-9.6-.8-28-4-37.6-6-15.2-3.2-30-8.8-43.6-16.8-2.4 2-4.4 4.4-6 6.8-2 2.8-2.8 5.6-2.8 8.8 0 10.8 12 20.8 31.6 28.8 21.6 8.8 51.6 14.4 85.2 14.4 8 0 16-.4 23.6-.8 4.4 0 8.8-.4 12.8-1.2zm91.2-157.2h-.4c-16.4 6.4-31.2 16-43.2 28.4-7.2 7.6-14 16-19.6 25.2-1.6 2.4-4 7.2-5.2 10-7.2 17.2-11.2 35.2-12 53.6v6.8c3.6 69.2 62.8 122.4 132 118.8s122.4-62.8 118.8-132c-3.6-69.2-62.8-122.4-132-118.8-13.2.8-26 3.6-38.4 8zm4.8-38v19.6c75.2-22 154 20.8 176 96s-20.8 154-96 176c-69.2 20.4-142.4-14.4-170.4-80.8-5.6.8-11.6 1.6-17.2 2-8 .8-16.4 1.2-24.8 1.2-35.6 0-67.6-6-91.2-15.6-26-10.4-41.6-26-41.6-44v-154.4c0-18 16-33.2 41.6-44 23.6-9.6 55.6-15.6 91.2-15.6s67.6 6 91.2 15.6c25.6 10.4 41.2 26 41.2 44z" style="" fill="#2b1828" data-original="#2b2d03" class=""></path></g></svg>