<svg height="480pt" viewBox="-72 0 480 480.00001" width="480pt" xmlns="http://www.w3.org/2000/svg"><path d="m243.792969 215.945312c0-42.648437 36.207031-85.296874 36.207031-127.945312l16-80h-48v80c0-17.671875-19.289062-32-37.894531-32-18.214844-.476562-33.421875 13.792969-34.105469 32h-16c-.683594-18.207031-15.890625-32.476562-34.105469-32-18.605469 0-37.894531 14.328125-37.894531 32v-80h-48l16 80c0 42.648438 36.207031 85.296875 36.207031 127.945312 0 85.351563-84.207031 170.703126-84.207031 256.054688h16c4.035156-9.6875 13.503906-16 24-16s19.964844 6.3125 24 16h32c4.035156-9.6875 13.503906-16 24-16s19.964844 6.3125 24 16h32c4.035156-9.6875 13.503906-16 24-16s19.964844 6.3125 24 16h32c3.4375-9.292969 12.339844-15.429688 22.246094-15.335938 10.792968-.167968 20.757812 5.765626 25.753906 15.335938h16c0-85.351562-84.207031-170.703125-84.207031-256.054688zm0 0" fill="#87cee9"/><g fill="#2d75bb"><path d="m147.761719 113.214844c-22.808594 14.265625-37.601563 1.546875-38.347657.898437-3.238281-3.007812-8.300781-2.820312-11.304687.417969-3.007813 3.238281-2.820313 8.300781.417969 11.308594 6.074218 5.210937 13.539062 8.53125 21.472656 9.550781v24.609375c0 4.417969 3.582031 8 8 8s8-3.582031 8-8v-25.097656c7.191406-1.425782 14.054688-4.179688 20.238281-8.117188 3.757813-2.34375 4.902344-7.285156 2.5625-11.042968-2.34375-3.753907-7.285156-4.898438-11.039062-2.558594zm0 0"/><path d="m238.785156 115.761719c-2.34375-3.75-7.277344-4.886719-11.023437-2.546875-22.808594 14.265625-37.601563 1.546875-38.347657.898437-3.238281-3.007812-8.300781-2.820312-11.304687.417969-3.007813 3.238281-2.820313 8.300781.417969 11.308594 6.074218 5.210937 13.539062 8.53125 21.472656 9.550781v24.609375c0 4.417969 3.582031 8 8 8s8-3.582031 8-8v-25.097656c7.191406-1.425782 14.054688-4.179688 20.238281-8.117188 3.75-2.34375 4.886719-7.277344 2.546875-11.023437zm0 0"/><path d="m80 432h16v16h-16zm0 0"/><path d="m160 432h16v16h-16zm0 0"/><path d="m240 432h16v16h-16zm0 0"/></g><path d="m0 472c0 4.417969 3.582031 8 8 8h16c3.367188 0 6.371094-2.109375 7.519531-5.273438 2.886719-6.519531 9.347657-10.722656 16.480469-10.722656s13.59375 4.203125 16.480469 10.722656c1.148437 3.164063 4.152343 5.273438 7.519531 5.273438h32c3.277344.003906 6.226562-1.996094 7.441406-5.039062 2.820313-6.644532 9.339844-10.957032 16.558594-10.957032s13.738281 4.3125 16.558594 10.957032c1.214844 3.042968 4.164062 5.042968 7.441406 5.039062h32c3.277344.003906 6.226562-1.996094 7.441406-5.039062 2.820313-6.644532 9.339844-10.957032 16.558594-10.957032s13.738281 4.3125 16.558594 10.957032c1.214844 3.042968 4.164062 5.042968 7.441406 5.039062h32c3.277344.003906 6.226562-1.996094 7.441406-5.039062 2.191406-6.265626 8.160156-10.417969 14.796875-10.296876 7.519531-.132812 14.523438 3.804688 18.320313 10.296876 1.214844 3.042968 4.164062 5.042968 7.441406 5.039062h16c4.417969 0 8-3.582031 8-8 0-44.542969-21.832031-88.800781-42.929688-131.566406-20.292968-41.136719-41.277343-83.679688-41.277343-124.488282 0-19.699218 8.480469-39.6875 17.464843-60.847656 9.140626-21.449218 18.519532-43.617187 18.742188-66.296875l15.839844-79.199219c.480468-2.355468-.121094-4.800781-1.640625-6.660156-1.519531-1.863281-3.796875-2.941406-6.199219-2.941406h-48c-4.417969 0-8 3.582031-8 8v50.230469c-8.621094-6.5-19.089844-10.082031-29.886719-10.230469-19.574219-.34375-36.753906 12.964844-41.3125 32h-1.6875c-4.550781-19.023438-21.710937-32.328125-41.265625-32-10.78125.15625-21.238281 3.738281-29.847656 10.230469v-50.230469c0-4.417969-3.582031-8-8-8h-48c-2.402344-.00390625-4.683594 1.074219-6.203125 2.9375-1.523437 1.859375-2.125 4.308594-1.644531 6.664062l15.847656 79.199219c.214844 22.664063 9.601562 44.800781 18.734375 66.277344 8.984375 21.160156 17.464844 41.152344 17.464844 60.851563 0 40.796874-20.984375 83.351562-41.277344 124.484374-21.097656 42.785157-42.921875 87.042969-42.921875 131.585938zm100.207031-256.054688c0-22.960937-9.527343-45.402343-18.734375-67.105468-8.992187-21.160156-17.472656-41.144532-17.472656-60.839844 0-.539062-.054688-1.074219-.160156-1.601562l-14.078125-70.398438h30.238281v72c0 4.417969 3.582031 8 8 8s8-3.582031 8-8c0-12.335938 14.519531-24 29.886719-24 13.824219-.542969 25.492187 10.179688 26.113281 24 0 4.417969 3.582031 8 8 8h16c4.417969 0 8-3.582031 8-8 .621094-13.820312 12.289062-24.542969 26.113281-24 15.367188 0 29.886719 11.664062 29.886719 24 0 4.417969 3.582031 8 8 8s8-3.582031 8-8v-72h30.238281l-14.085937 70.398438c-.101563.527343-.152344 1.066406-.152344 1.601562 0 19.695312-8.488281 39.679688-17.472656 60.839844-9.207032 21.703125-18.734375 44.144531-18.734375 67.105468 0 44.535157 21.824219 88.796876 42.925781 131.566407 18.976562 38.457031 38.546875 78.144531 41.023438 116.488281h-3.023438c-7.183594-9.621094-18.472656-15.300781-30.480469-15.335938-11.144531-.097656-21.496093 5.746094-27.175781 15.335938h-22.199219c-6.21875-9.953125-17.125-16.003906-28.863281-16.003906s-22.644531 6.050781-28.863281 16.003906h-22.273438c-6.21875-9.953125-17.125-16.003906-28.863281-16.003906s-22.644531 6.050781-28.863281 16.003906h-22.144531c-6.273438-9.960938-17.222657-16.003906-28.992188-16.003906s-22.71875 6.042968-28.992188 16.003906h-2.75c2.476563-38.34375 22.046876-78.03125 41.023438-116.488281 21.117188-42.785157 42.925781-87.03125 42.925781-131.566407zm0 0"/><path d="m200 135.390625v24.609375c0 4.417969 3.582031 8 8 8s8-3.582031 8-8v-25.097656c7.191406-1.425782 14.054688-4.179688 20.238281-8.117188 3.757813-2.34375 4.902344-7.285156 2.5625-11.042968-2.34375-3.753907-7.285156-4.898438-11.039062-2.558594-22.808594 14.265625-37.601563 1.542968-38.347657.894531-3.238281-3.003906-8.300781-2.816406-11.304687.421875-3.007813 3.238281-2.820313 8.300781.417969 11.308594 6.070312 5.21875 13.535156 8.550781 21.472656 9.582031zm0 0"/><path d="m120 160c0 4.417969 3.582031 8 8 8s8-3.582031 8-8v-25.097656c7.191406-1.425782 14.054688-4.179688 20.238281-8.117188 3.757813-2.34375 4.902344-7.285156 2.5625-11.042968-2.34375-3.753907-7.285156-4.898438-11.039062-2.558594-22.808594 14.265625-37.601563 1.542968-38.347657.894531-3.238281-3.003906-8.300781-2.816406-11.304687.421875-3.007813 3.238281-2.820313 8.300781.417969 11.308594 6.070312 5.21875 13.535156 8.550781 21.472656 9.582031zm0 0"/><path d="m80 432h16v16h-16zm0 0"/><path d="m160 432h16v16h-16zm0 0"/><path d="m240 432h16v16h-16zm0 0"/></svg>