<?xml version="1.0" encoding="iso-8859-1"?>
<!-- Generator: Adobe Illustrator 19.0.0, SVG Export Plug-In . SVG Version: 6.00 Build 0)  -->
<svg version="1.1" id="Capa_1" xmlns="http://www.w3.org/2000/svg" xmlns:xlink="http://www.w3.org/1999/xlink" x="0px" y="0px"
	 viewBox="0 0 480.021 480.021" style="enable-background:new 0 0 480.021 480.021;" xml:space="preserve">
<path style="fill:#1A1A1A;" d="M88.01,199.7v156.496c87.839,73.957,216.161,73.957,304,0V199.7H88.01z"/>
<path style="fill:#333333;" d="M240.01,68.196l-232,104l232,104l232-104L240.01,68.196z"/>
<path style="fill:#F8CF26;" d="M440.01,340.196l-13.312,20c-1.747,2.62-2.682,5.698-2.688,8.848v9.264
	c0,6.062,3.426,11.603,8.848,14.312c4.503,2.25,9.801,2.25,14.304,0c5.422-2.71,8.848-8.25,8.848-14.312v-9.264
	c0.001-3.161-0.935-6.25-2.688-8.88L440.01,340.196z"/>
<path d="M475.282,164.892l-232-104c-2.082-0.933-4.462-0.933-6.544,0l-232,104c-4.034,1.802-5.843,6.534-4.04,10.568
	c0.804,1.798,2.242,3.237,4.04,4.04l75.272,33.736v142.96c0,2.36,1.042,4.6,2.848,6.12c90.736,76.683,223.568,76.683,314.304,0
	c1.806-1.52,2.848-3.76,2.848-6.12v-142.96l32-14.344v138.904l-12,17.952c-2.622,3.943-4.014,8.576-4,13.312v9.272
	c0,13.255,10.745,24,24,24s24-10.745,24-24v-9.296c0.014-4.736-1.378-9.369-4-13.312l-12-17.928V191.724l27.272-12.224
	c4.034-1.802,5.843-6.534,4.04-10.568C478.519,167.134,477.081,165.695,475.282,164.892L475.282,164.892z M448.01,378.308
	c0,4.418-3.582,8-8,8s-8-3.582-8-8v-9.272c-0.002-1.578,0.466-3.121,1.344-4.432l6.656-10.008l6.656,9.984
	c0.878,1.311,1.346,2.854,1.344,4.432V378.308z M384.01,352.436c-83.779,68.504-204.221,68.504-288,0v-132l140.728,63.088
	c2.082,0.933,4.462,0.933,6.544,0l140.728-63.112V352.436z M435.466,179.812L240.65,164.196c-4.418-0.353-8.287,2.942-8.64,7.36
	s2.942,8.287,7.36,8.64l165.72,13.256l-165.08,73.944l-212.44-95.2l212.44-95.2l212.44,95.2L435.466,179.812z"/>
<g>
</g>
<g>
</g>
<g>
</g>
<g>
</g>
<g>
</g>
<g>
</g>
<g>
</g>
<g>
</g>
<g>
</g>
<g>
</g>
<g>
</g>
<g>
</g>
<g>
</g>
<g>
</g>
<g>
</g>
</svg>
