<?xml version="1.0" encoding="iso-8859-1"?>
<!-- Generator: Adobe Illustrator 22.1.0, SVG Export Plug-In . SVG Version: 6.00 Build 0)  -->
<svg xmlns="http://www.w3.org/2000/svg" xmlns:xlink="http://www.w3.org/1999/xlink" version="1.1" id="Layer_3" x="0px" y="0px" viewBox="0 0 64 64" style="enable-background:new 0 0 64 64;" xml:space="preserve" width="512" height="512">
<g>
	<g>
		<path style="fill:#E88F0C;" d="M30,10H16c-2.209,0-4-1.791-4-4v0c0-2.209,1.791-4,4-4h14V10z"/>
	</g>
	<g>
		<line style="fill:#E88F0C;" x1="30" y1="6" x2="23" y2="6"/>
	</g>
	<g>
		<path style="fill:#E88F0C;" d="M30,18H16c-2.209,0-4-1.791-4-4v0c0-2.209,1.791-4,4-4h14V18z"/>
	</g>
	<g>
		<line style="fill:#E88F0C;" x1="23" y1="14" x2="30" y2="14"/>
	</g>
	<g>
		<path style="fill:#E88F0C;" d="M30,26H16c-2.209,0-4-1.791-4-4v0c0-2.209,1.791-4,4-4h14V26z"/>
	</g>
	<g>
		<line style="fill:#E88F0C;" x1="30" y1="22" x2="23" y2="22"/>
	</g>
	<g>
		<line style="fill:#E88F0C;" x1="30" y1="6" x2="23" y2="6"/>
	</g>
	<g>
		<line style="fill:#E88F0C;" x1="23" y1="14" x2="30" y2="14"/>
	</g>
	<g>
		<line style="fill:#E88F0C;" x1="30" y1="22" x2="23" y2="22"/>
	</g>
	<g>
		<path style="fill:#FFAB02;" d="M16,2c-2.209,0-4,1.791-4,4c0,2.209,1.791,4,4,4h10V2H16z"/>
	</g>
	<g>
		<path style="fill:#FFAB02;" d="M16,10c-2.209,0-4,1.791-4,4c0,2.209,1.791,4,4,4h10v-8H16z"/>
	</g>
	<g>
		<path style="fill:#FFAB02;" d="M16,18c-2.209,0-4,1.791-4,4c0,2.209,1.791,4,4,4h10v-8H16z"/>
	</g>
	<g>
		<path style="fill:#D4468F;" d="M42,26v-5c0-1.657-1.343-3-3-3h0c-1.657,0-3,1.343-3,3v5H42z"/>
	</g>
	<g>
		<path style="fill:#EF4F76;" d="M37.5,18.416C36.607,18.936,36,19.892,36,21v5h3v-5C39,19.892,38.393,18.936,37.5,18.416z"/>
	</g>
	<g>
		<rect x="2" y="10" style="fill:#754C24;" width="4" height="16"/>
	</g>
	<g>
		<rect x="2" y="26" style="fill:#754C24;" width="60" height="36"/>
	</g>
	<g>
		<path d="M62,63H2c-0.552,0-1-0.447-1-1V26c0-0.553,0.448-1,1-1h60c0.552,0,1,0.447,1,1v36C63,62.553,62.552,63,62,63z M3,61h58V27    H3V61z"/>
	</g>
	<g>
		<rect x="6" y="30" style="fill:#A67C52;" width="52" height="28"/>
	</g>
	<g>
		<rect x="6" y="30" style="fill:#C69C6D;" width="46" height="28"/>
	</g>
	<g>
		<polygon style="fill:#74489D;" points="54,15 54,26 46,26 46,15 48,10 52,10   "/>
	</g>
	<g>
		<polygon style="fill:#862B87;" points="49,10 48,10 46,15 46,26 51,26 51,15   "/>
	</g>
	<g>
		<rect x="46" y="15" width="8" height="2"/>
	</g>
	<g>
		<rect x="46" y="21" width="8" height="2"/>
	</g>
	<g>
		<rect x="27" y="33" width="2" height="8"/>
	</g>
	<g>
		<rect x="27" y="47" width="2" height="8"/>
	</g>
	<g>
		<rect x="35" y="39" width="2" height="10"/>
	</g>
	<g>
		<path d="M43,26h-2v-5c0-1.103-0.897-2-2-2s-2,0.897-2,2v5h-2v-5c0-2.206,1.794-4,4-4s4,1.794,4,4V26z"/>
	</g>
	<g>
		<path d="M40,18h-2v-3h-2v-2h3c0.552,0,1,0.447,1,1V18z"/>
	</g>
	<g>
		<path d="M32,45H6c-0.552,0-1-0.447-1-1V30c0-0.553,0.448-1,1-1h26c0.552,0,1,0.447,1,1v14C33,44.553,32.552,45,32,45z M7,43h24V31    H7V43z"/>
	</g>
	<g>
		<path d="M32,59H6c-0.552,0-1-0.447-1-1V44c0-0.553,0.448-1,1-1h26c0.552,0,1,0.447,1,1v14C33,58.553,32.552,59,32,59z M7,57h24V45    H7V57z"/>
	</g>
	<g>
		<path d="M6,27H2c-0.552,0-1-0.447-1-1V10c0-0.553,0.448-1,1-1h4c0.552,0,1,0.447,1,1v16C7,26.553,6.552,27,6,27z M3,25h2V11H3V25z    "/>
	</g>
	<g>
		<rect x="58" y="10" style="fill:#754C24;" width="4" height="16"/>
	</g>
	<g>
		<path d="M30,11H16c-2.757,0-5-2.243-5-5s2.243-5,5-5h14c0.552,0,1,0.447,1,1v8C31,10.553,30.552,11,30,11z M16,3    c-1.654,0-3,1.346-3,3s1.346,3,3,3h13V3H16z"/>
	</g>
	<g>
		<rect x="23" y="5" width="7" height="2"/>
	</g>
	<g>
		<path d="M30,19H16c-2.757,0-5-2.243-5-5s2.243-5,5-5h14c0.552,0,1,0.447,1,1v8C31,18.553,30.552,19,30,19z M16,11    c-1.654,0-3,1.346-3,3s1.346,3,3,3h13v-6H16z"/>
	</g>
	<g>
		<rect x="23" y="13" width="7" height="2"/>
	</g>
	<g>
		<path d="M30,27H16c-2.757,0-5-2.243-5-5s2.243-5,5-5h14c0.552,0,1,0.447,1,1v8C31,26.553,30.552,27,30,27z M16,19    c-1.654,0-3,1.346-3,3s1.346,3,3,3h13v-6H16z"/>
	</g>
	<g>
		<rect x="23" y="21" width="7" height="2"/>
	</g>
	<g>
		<path d="M58,59H6c-0.552,0-1-0.447-1-1V30c0-0.553,0.448-1,1-1h52c0.552,0,1,0.447,1,1v28C59,58.553,58.552,59,58,59z M7,57h50V31    H7V57z"/>
	</g>
	<g>
		<path d="M62,27h-4c-0.552,0-1-0.447-1-1V10c0-0.553,0.448-1,1-1h4c0.552,0,1,0.447,1,1v16C63,26.553,62.552,27,62,27z M59,25h2V11    h-2V25z"/>
	</g>
	<g>
		<path d="M54,27h-8c-0.552,0-1-0.447-1-1V15c0-0.127,0.024-0.253,0.071-0.371l2-5C47.224,9.249,47.591,9,48,9h4    c0.409,0,0.776,0.249,0.929,0.629l2,5C54.976,14.747,55,14.873,55,15v11C55,26.553,54.552,27,54,27z M47,25h6v-9.808L51.323,11    h-2.646L47,15.192V25z"/>
	</g>
</g>
</svg>
