<svg height="480pt" viewBox="0 0 480 480" width="480pt" xmlns="http://www.w3.org/2000/svg"><path d="m424 376h-368v-136l184-184 184 184zm0 0" fill="#f9cc91"/><path d="m216 240h208v136h-208zm0 0" fill="#e0ac89"/><path d="m240 56-184 184h-48l232-232 232 232h-48zm0 0" fill="#e9686a"/><path d="m320 136-104 104h208zm0 0" fill="#f9cc91"/><path d="m280 272h80v104h-80zm0 0" fill="#f9cc91"/><path d="m88 264h48v48h-48zm0 0" fill="#fff"/><path d="m136 264h48v48h-48zm0 0" fill="#fff"/><path d="m344 472h-208l64-96h80zm0 0" fill="#f6bf9b"/><g fill="#36afad"><path d="m472 384h-464c-4.417969 0-8-3.582031-8-8 0-4.421875 3.582031-8 8-8h464c4.417969 0 8 3.578125 8 8 0 4.417969-3.582031 8-8 8zm0 0"/><path d="m16 400h16v16h-16zm0 0"/><path d="m32 416h16v16h-16zm0 0"/><path d="m80 400h16v16h-16zm0 0"/><path d="m128 400h16v16h-16zm0 0"/><path d="m96 448h16v16h-16zm0 0"/><path d="m448 400h16v16h-16zm0 0"/><path d="m432 416h16v16h-16zm0 0"/><path d="m384 400h16v16h-16zm0 0"/><path d="m336 400h16v16h-16zm0 0"/><path d="m368 448h16v16h-16zm0 0"/></g><path d="m216 240h-48l152-152 152 152h-48l-104-104zm0 0" fill="#f49e21"/><path d="m184 256h-96c-4.417969 0-8 3.578125-8 8v48c0 4.417969 3.582031 8 8 8h96c4.417969 0 8-3.582031 8-8v-48c0-4.421875-3.582031-8-8-8zm-88 16h32v32h-32zm80 32h-32v-32h32zm0 0"/><path d="m472 368h-40v-120h40c3.234375-.003906 6.152344-1.953125 7.390625-4.941406 1.238281-2.988282.550781-6.429688-1.734375-8.714844l-232-232c-3.125-3.125-8.1875-3.125-11.3125 0l-232 232c-2.2851562 2.285156-2.972656 5.726562-1.734375 8.714844 1.238281 2.988281 4.15625 4.9375 7.390625 4.941406h40v120h-40c-4.417969 0-8 3.578125-8 8 0 4.417969 3.582031 8 8 8h177.054688l-55.710938 83.558594c-1.636719 2.453125-1.789062 5.613281-.398438 8.214844 1.390626 2.601562 4.105469 4.226562 7.054688 4.226562h208c2.949219 0 5.664062-1.625 7.054688-4.226562 1.390624-2.601563 1.238281-5.761719-.398438-8.214844l-55.710938-83.558594h177.054688c4.417969 0 8-3.582031 8-8 0-4.421875-3.582031-8-8-8zm-19.3125-136h-25.375l-101.65625-101.65625c-3.125-3.125-8.1875-3.125-11.3125 0l-101.65625 101.65625h-25.375l132.6875-132.691406zm-48 0h-169.375l84.6875-84.691406zm-164.6875-212.691406 68.6875 68.691406-12.6875 12.6875-50.34375-50.34375c-3.125-3.125-8.1875-3.125-11.3125 0l-181.65625 181.65625h-25.375zm-176 224 176-176 44.6875 44.691406-122.34375 122.34375c-2.285156 2.285156-2.972656 5.726562-1.734375 8.714844 1.238281 2.988281 4.15625 4.9375 7.390625 4.941406h40v120h-144zm86.953125 220.691406 53.328125-80h71.4375l53.328125 80zm137.046875-96v-88h64v88zm80 0v-96c0-4.421875-3.582031-8-8-8h-80c-4.417969 0-8 3.578125-8 8v96h-48v-120h192v120zm0 0"/><path d="m16 400h16v16h-16zm0 0"/><path d="m32 416h16v16h-16zm0 0"/><path d="m80 400h16v16h-16zm0 0"/><path d="m128 400h16v16h-16zm0 0"/><path d="m96 448h16v16h-16zm0 0"/><path d="m448 400h16v16h-16zm0 0"/><path d="m432 416h16v16h-16zm0 0"/><path d="m384 400h16v16h-16zm0 0"/><path d="m336 400h16v16h-16zm0 0"/><path d="m368 448h16v16h-16zm0 0"/></svg>