<svg height="512pt" viewBox="0 -13 512.001 512" width="512pt" xmlns="http://www.w3.org/2000/svg"><path d="m496.949219 92.308594h-481.898438c-8.3125 0-15.050781 6.738281-15.050781 15.050781v363.546875c0 8.3125 6.738281 15.050781 15.050781 15.050781h481.898438c8.3125 0 15.050781-6.738281 15.050781-15.050781v-363.546875c0-8.3125-6.738281-15.050781-15.050781-15.050781zm0 0" fill="#1b3b6b"/><path d="m496.949219 92.308594h-240.949219v393.648437h240.949219c8.3125 0 15.050781-6.738281 15.050781-15.050781v-363.546875c0-8.3125-6.738281-15.050781-15.050781-15.050781zm0 0" fill="#12254c"/><path d="m358.34375 122.410156h-204.683594c-8.3125 0-15.050781-6.738281-15.050781-15.050781 0-59.199219 48.160156-107.359375 107.359375-107.359375h20.066406c59.195313 0 107.355469 48.160156 107.355469 107.359375 0 8.3125-6.738281 15.050781-15.046875 15.050781zm-188.164062-30.101562h171.640624c-7.023437-35.421875-38.335937-62.207032-75.789062-62.207032h-20.066406c-37.449219 0-68.761719 26.785157-75.785156 62.207032zm0 0" fill="#1b3b6b"/><path d="m266.035156 0h-10.035156v30.101562h10.035156c37.449219 0 68.761719 26.785157 75.785156 62.207032h-85.820312v30.101562h102.34375c8.308594 0 15.046875-6.738281 15.046875-15.050781 0-59.199219-48.160156-107.359375-107.355469-107.359375zm0 0" fill="#12254c"/><path d="m309.070312 276.71875c-3.34375-2.859375-7.773437-4.105469-12.125-3.425781l-40.945312 6.457031-40.949219-6.457031c-4.34375-.683594-8.773437.566406-12.121093 3.425781-3.34375 2.859375-5.273438 7.039062-5.273438 11.441406v64.015625c0 8.3125 6.738281 15.050781 15.050781 15.050781h86.582031c8.3125 0 15.050782-6.738281 15.050782-15.050781v-64.015625c0-4.402344-1.925782-8.582031-5.269532-11.441406zm0 0" fill="#8bc8e8"/><path d="m309.070312 276.71875c-3.34375-2.859375-7.773437-4.105469-12.125-3.425781l-40.945312 6.457031v87.476562h43.289062c8.3125 0 15.050782-6.738281 15.050782-15.050781v-64.015625c0-4.402344-1.925782-8.582031-5.269532-11.441406zm0 0" fill="#6e96dc"/><path d="m496.949219 92.308594h-481.898438c-8.3125 0-15.050781 6.738281-15.050781 15.050781v149.632813c0 7.410156 5.390625 13.714843 12.707031 14.867187l240.949219 37.992187c.777344.121094 1.5625.183594 2.34375.183594.785156 0 1.566406-.0625 2.34375-.183594l240.949219-37.992187c7.320312-1.152344 12.707031-7.460937 12.707031-14.867187v-149.632813c0-8.3125-6.738281-15.050781-15.050781-15.050781zm0 0" fill="#27488f"/><path d="m496.949219 92.308594h-240.949219v217.726562c.785156 0 1.566406-.0625 2.34375-.183594l240.949219-37.992187c7.320312-1.152344 12.707031-7.460937 12.707031-14.867187v-149.632813c0-8.3125-6.738281-15.050781-15.050781-15.050781zm0 0" fill="#1b3b6b"/></svg>