<svg height="321pt" viewBox="0 0 321.7099 321" width="321pt" xmlns="http://www.w3.org/2000/svg"><path d="m177.253906 204.414062 26.804688-26.804687 42.886718 42.886719-26.804687 26.804687zm0 0" fill="#aabece"/><path d="m230.863281 118.640625c0 62.175781-50.402343 112.578125-112.578125 112.578125-62.175781 0-112.578125-50.402344-112.578125-112.578125s50.402344-112.578125 112.578125-112.578125c62.175782 0 112.578125 50.402344 112.578125 112.578125zm0 0" fill="#394d5c"/><path d="m209.421875 118.640625c0 50.332031-40.804687 91.136719-91.136719 91.136719-50.332031 0-91.132812-40.804688-91.132812-91.136719s40.800781-91.136719 91.132812-91.136719c50.332032 0 91.136719 40.804688 91.136719 91.136719zm0 0" fill="#cfdfe8"/><path d="m187.976562 124c-2.960937 0-5.359374-2.398438-5.359374-5.359375-.042969-35.511719-28.820313-64.289063-64.332032-64.332031-2.960937 0-5.359375-2.398438-5.359375-5.359375 0-2.960938 2.398438-5.359375 5.359375-5.359375 41.433594.042968 75.007813 33.621094 75.054688 75.050781 0 2.960937-2.402344 5.359375-5.363282 5.359375zm0 0" fill="#fff"/><path d="m220.144531 247.300781-5.363281 5.363281 64.332031 64.328126 37.527344-37.523438-64.332031-64.332031zm0 0" fill="#ad6327"/><path d="m134.367188 118.640625c0 8.882813-7.199219 16.082031-16.082032 16.082031-8.882812 0-16.082031-7.199218-16.082031-16.082031s7.199219-16.082031 16.082031-16.082031c8.882813 0 16.082032 7.199218 16.082032 16.082031zm0 0" fill="#394d5c"/><path d="m166.539062 113.277344c-1.882812.003906-3.632812-.984375-4.601562-2.601563-9.664062-14.777343-26-23.835937-43.652344-24.203125-17.65625.371094-33.996094 9.433594-43.660156 24.21875-1.527344 2.535156-4.820312 3.351563-7.355469 1.824219-2.535156-1.527344-3.355469-4.820313-1.828125-7.359375 11.625-17.980469 31.433594-29.003906 52.84375-29.40625 21.414063.402344 41.222656 11.425781 52.847656 29.40625 1.523438 2.539062.699219 5.832031-1.839843 7.355469-.832031.503906-1.785157.765625-2.753907.765625zm0 0" fill="#5a6470"/><path d="m118.285156 161.527344c-21.410156-.398438-41.21875-11.421875-52.84375-29.40625-1.523437-2.539063-.699218-5.832032 1.835938-7.355469 2.539062-1.523437 5.832031-.699219 7.355468 1.835937 9.664063 14.78125 26 23.835938 43.652344 24.203126 17.660156-.367188 33.996094-9.429688 43.660156-24.214844 1.527344-2.535156 4.820313-3.355469 7.359376-1.828125 2.535156 1.527343 3.351562 4.824219 1.824218 7.359375-11.625 17.984375-31.433594 29.007812-52.84375 29.40625zm0 0" fill="#5a6470"/><path d="m279.113281 290.1875c-2.960937 0-5.363281-2.398438-5.359375-5.359375 0-1.421875.5625-2.785156 1.566406-3.789063l6.933594-6.933593-33.738281-33.734375c-2.078125-2.109375-2.058594-5.5.050781-7.582032 2.085938-2.0625 5.441406-2.0625 7.53125 0l37.527344 37.527344c2.089844 2.089844 2.09375 5.484375 0 7.578125l-10.722656 10.722657c-1.003906 1.007812-2.367188 1.574218-3.789063 1.570312zm0 0" fill="#66342e"/><path d="m177.019531 161.527344c-2.960937-.003906-5.359375-2.40625-5.355469-5.367188 0-1.019531.292969-2.023437.84375-2.882812 2.960938-4.625 5.316407-9.613282 7.007813-14.84375.910156-2.816406 3.933594-4.363282 6.75-3.453125 2.816406.910156 4.363281 3.933593 3.453125 6.753906-1.972656 6.097656-4.722656 11.921875-8.179688 17.320313-.988281 1.542968-2.691406 2.476562-4.519531 2.472656zm0 0" fill="#fff"/><path d="m187.976562 258.023438c-8.875-.007813-16.070312-7.203126-16.082031-16.082032 0-2.960937-2.398437-5.359375-5.359375-5.359375-2.960937 0-5.363281 2.398438-5.363281 5.359375-.007813 8.878906-7.203125 16.074219-16.082031 16.082032-2.960938 0-5.359375 2.402343-5.359375 5.359374 0 2.960938 2.398437 5.363282 5.359375 5.363282 8.878906.007812 16.074218 7.203125 16.082031 16.082031 0 2.960937 2.402344 5.359375 5.363281 5.359375 2.960938 0 5.359375-2.398438 5.359375-5.359375.011719-8.878906 7.207031-16.074219 16.082031-16.082031 2.960938 0 5.363282-2.402344 5.363282-5.363282 0-2.957031-2.402344-5.359374-5.363282-5.359374zm-21.441406 10.886718c-1.566406-2.097656-3.425781-3.960937-5.527344-5.527344 2.101563-1.5625 3.960938-3.421874 5.527344-5.523437 1.5625 2.097656 3.421875 3.960937 5.523438 5.523437-2.097656 1.566407-3.960938 3.425782-5.523438 5.527344zm0 0" fill="#fdbd40"/><path d="m284.472656 22.144531c-8.875-.011719-16.070312-7.203125-16.082031-16.082031 0-2.960938-2.398437-5.359375-5.359375-5.359375s-5.363281 2.398437-5.363281 5.359375c-.007813 8.878906-7.203125 16.070312-16.082031 16.082031-2.960938 0-5.359376 2.398438-5.359376 5.359375 0 2.960938 2.398438 5.363282 5.359376 5.363282 8.878906.007812 16.074218 7.203124 16.082031 16.082031 0 2.960937 2.402343 5.359375 5.363281 5.359375s5.359375-2.398438 5.359375-5.359375c.011719-8.878907 7.207031-16.074219 16.082031-16.082031 2.960938 0 5.363282-2.402344 5.363282-5.363282 0-2.960937-2.402344-5.359375-5.363282-5.359375zm-21.441406 10.886719c-1.566406-2.101562-3.425781-3.960938-5.527344-5.527344 2.101563-1.5625 3.960938-3.425781 5.527344-5.527344 1.5625 2.101563 3.421875 3.964844 5.527344 5.527344-2.101563 1.566406-3.964844 3.425782-5.527344 5.527344zm0 0" fill="#fdbd40"/><path d="m118.285156 22.144531c-53.226562-.066406-96.429687 43.027344-96.496094 96.253907-.035156 27.953124 12.070313 54.546874 33.175782 72.878906.5625.664062 1.210937 1.253906 1.925781 1.75 5.042969 4.15625 10.492187 7.789062 16.265625 10.84375.125.058594.238281.132812.367188.179687 47.1875 24.734375 105.492187 6.539063 130.230468-40.648437 24.738282-47.1875 6.539063-105.492188-40.648437-130.230469-13.828125-7.246094-29.207031-11.03125-44.820313-11.027344zm0 182.269531c-11.597656.007813-23.078125-2.351562-33.734375-6.933593l21.441407-21.441407c2.074218-2.113281 2.042968-5.507812-.066407-7.582031-2.085937-2.046875-5.429687-2.046875-7.515625 0l-23.84375 23.847657c-2.414062-1.4375-4.746094-2.988282-6.996094-4.648438l11.617188-11.617188c2.074219-2.113281 2.042969-5.507812-.066406-7.582031-2.085938-2.046875-5.429688-2.046875-7.511719 0l-12.300781 12.300781c-34.242188-32.636718-35.535156-86.855468-2.898438-121.09375 32.640625-34.238281 86.855469-35.535156 121.097656-2.898437 34.238282 32.640625 35.535157 86.859375 2.894532 121.097656-16.191406 16.988281-38.648438 26.585938-62.117188 26.550781zm0 0"/><path d="m118.285156 43.589844c-2.960937 0-5.359375 2.398437-5.359375 5.359375 0 2.960937 2.398438 5.359375 5.359375 5.359375 35.511719.042968 64.289063 28.820312 64.332032 64.332031 0 2.960937 2.398437 5.359375 5.359374 5.359375 2.960938 0 5.363282-2.398438 5.363282-5.359375-.046875-41.429687-33.621094-75.007813-75.054688-75.050781zm0 0"/><path d="m256.097656 211.347656c-2.089844-2.09375-5.484375-2.09375-7.578125-.003906v.003906l-1.574219 1.570313-29.90625-29.910157c35.636719-54.632812 20.242188-127.808593-34.386718-163.449218s-127.808594-20.246094-163.449219 34.382812c-35.640625 54.632813-20.246094 127.808594 34.382813 163.449219 39.21875 25.585937 89.847656 25.585937 129.066406 0l29.910156 29.910156-1.570312 1.570313c-2.09375 2.09375-2.09375 5.488281 0 7.582031l64.332031 64.332031c2.089843 2.09375 5.484375 2.09375 7.578125 0h.003906l37.523438-37.527344c2.09375-2.089843 2.09375-5.484374.003906-7.578124-.003906 0-.003906 0-.003906 0zm-137.8125 14.511719c-59.214844 0-107.21875-48.003906-107.21875-107.21875s48.003906-107.21875 107.21875-107.21875 107.21875 48.003906 107.21875 107.21875c-.066406 59.1875-48.03125 107.148437-107.21875 107.21875zm73.171875-14.824219c7.121094-5.652344 13.574219-12.101562 19.222657-19.222656l28.6875 28.683594-19.222657 19.226562zm87.65625 98.378906-56.75-56.75 29.945313-29.945312 56.75 56.75zm0 0"/><path d="m96.84375 118.640625c0 11.84375 9.597656 21.445313 21.441406 21.445313s21.445313-9.601563 21.445313-21.445313-9.601563-21.441406-21.445313-21.441406c-11.835937.011719-21.429687 9.605469-21.441406 21.441406zm32.164062 0c0 5.921875-4.800781 10.722656-10.722656 10.722656s-10.722656-4.800781-10.722656-10.722656 4.800781-10.722656 10.722656-10.722656c5.921875.007812 10.714844 4.804687 10.722656 10.722656zm0 0"/><path d="m67.269531 112.503906c2.535157 1.519532 5.820313.710938 7.355469-1.8125 9.664062-14.785156 26.003906-23.847656 43.660156-24.214844 17.65625.367188 33.988282 9.421876 43.652344 24.199219 1.523438 2.539063 4.816406 3.363281 7.355469 1.839844 2.539062-1.523437 3.359375-4.816406 1.835937-7.355469-11.625-17.984375-31.433594-29.007812-52.84375-29.40625-21.410156.398438-41.21875 11.421875-52.84375 29.40625-1.519531 2.53125-.699218 5.816406 1.828125 7.34375zm0 0"/><path d="m169.300781 124.777344c-2.53125-1.523438-5.820312-.714844-7.355469 1.8125-9.660156 14.785156-26 23.847656-43.660156 24.214844-17.652344-.367188-33.988281-9.421876-43.652344-24.203126-1.523437-2.535156-4.816406-3.359374-7.355468-1.835937-2.535156 1.523437-3.359375 4.816406-1.835938 7.355469 11.625 17.984375 31.433594 29.007812 52.84375 29.40625 21.410156-.398438 41.21875-11.421875 52.84375-29.40625 1.519532-2.535156.703125-5.816406-1.828125-7.34375zm0 0"/><path d="m248.519531 232.789062c-2.09375 2.09375-2.09375 5.484376-.003906 7.578126.003906.003906.003906.003906.003906.003906l33.734375 33.734375-6.929687 6.933593c-2.109375 2.078126-2.128907 5.472657-.046875 7.578126 2.078125 2.105468 5.472656 2.128906 7.578125.046874.015625-.015624.035156-.03125.050781-.046874l10.71875-10.722657c2.09375-2.089843 2.09375-5.484375.003906-7.578125 0 0 0 0-.003906 0l-37.523438-37.527344c-2.09375-2.09375-5.484374-2.09375-7.578124 0-.003907 0-.003907 0-.003907 0zm0 0"/><path d="m186.265625 134.984375c-2.816406-.910156-5.835937.636719-6.75 3.449219-1.691406 5.230468-4.046875 10.214844-7.007813 14.84375-1.597656 2.492187-.867187 5.808594 1.625 7.40625 2.492188 1.597656 5.808594.867187 7.40625-1.625 3.457032-5.402344 6.203126-11.222656 8.179688-17.324219.910156-2.820313-.636719-5.839844-3.453125-6.75zm0 0"/><path d="m161.171875 284.828125c0 2.960937 2.402344 5.359375 5.363281 5.359375 2.960938 0 5.359375-2.398438 5.359375-5.359375.011719-8.878906 7.203125-16.074219 16.082031-16.082031 2.960938 0 5.359376-2.402344 5.359376-5.363282 0-2.957031-2.398438-5.359374-5.359376-5.359374-8.878906-.007813-16.070312-7.203126-16.082031-16.082032 0-2.960937-2.398437-5.359375-5.359375-5.359375-2.960937 0-5.363281 2.398438-5.363281 5.359375-.007813 8.878906-7.203125 16.074219-16.082031 16.082032-2.960938 0-5.359375 2.402343-5.359375 5.359374 0 2.960938 2.398437 5.363282 5.359375 5.363282 8.878906.007812 16.074218 7.203125 16.082031 16.082031zm5.363281-26.96875c1.5625 2.097656 3.421875 3.960937 5.523438 5.523437-2.097656 1.566407-3.960938 3.425782-5.523438 5.527344-1.566406-2.097656-3.425781-3.960937-5.527344-5.527344 2.101563-1.5625 3.960938-3.425781 5.527344-5.523437zm0 0"/><path d="m241.585938 32.867188c8.878906.007812 16.074218 7.203124 16.082031 16.082031 0 2.960937 2.402343 5.359375 5.363281 5.359375s5.359375-2.398438 5.359375-5.359375c.011719-8.878907 7.203125-16.074219 16.082031-16.082031 2.960938 0 5.359375-2.402344 5.359375-5.363282 0-2.960937-2.398437-5.359375-5.359375-5.359375-8.878906-.011719-16.070312-7.203125-16.082031-16.082031 0-2.960938-2.398437-5.359375-5.359375-5.359375s-5.363281 2.398437-5.363281 5.359375c-.007813 8.878906-7.203125 16.070312-16.082031 16.082031-2.960938 0-5.359376 2.398438-5.359376 5.359375 0 2.960938 2.398438 5.363282 5.359376 5.363282zm21.445312-10.886719c1.5625 2.097656 3.421875 3.960937 5.527344 5.523437-2.101563 1.566406-3.964844 3.425782-5.527344 5.527344-1.566406-2.101562-3.425781-3.960938-5.527344-5.527344 2.101563-1.5625 3.960938-3.425781 5.527344-5.523437zm0 0"/></svg>