<svg height="496pt" viewBox="-32 0 496 496" width="496pt" xmlns="http://www.w3.org/2000/svg"><path d="m432 122.59375c0-24.144531-15.382812-45.496094-38.289062-53.121094l-81.933594-27.3125.222656-42.160156h-17.535156l-78.464844 31.382812-78.464844-31.382812h-17.535156v42.238281l-81.703125 27.242188c-22.914063 7.625-38.296875 28.976562-38.296875 53.113281v285.40625h74.230469l-8.140625 24.433594c-1.386719 4.152344-2.089844 8.488281-2.089844 12.878906 0 9.742188 6.152344 18.527344 15.3125 21.855469l69.933594 25.433593c6.195312 2.253907 12.683594 3.398438 19.28125 3.398438 19.375 0 37.199218-9.976562 47.472656-25.96875 10.265625 15.992188 28.089844 25.96875 47.472656 25.96875 6.605469 0 13.09375-1.144531 19.28125-3.398438l69.933594-25.433593c9.160156-3.328125 15.3125-12.113281 15.3125-21.855469 0-4.390625-.703125-8.726562-2.089844-12.878906l-8.140625-24.433594h74.230469zm-16 0v237.40625h-48v-221.425781l19.953125-54.160157.695313.234376c16.359374 5.457031 27.351562 20.703124 27.351562 37.945312zm-296.992188 32.46875-22.0625-88.277344 23.855469-7.953125 31.503907 111.367188 23.695312 37.113281v.6875h.441406l30.054688 47.097656-5.535156 8.605469-56.960938-51.261719v-40.722656zm53.519532-35.0625c1.175781 0 2.320312-.273438 3.472656-.472656v58.570312l-8.632812-13.433594-29.917969-104.71875 14.871093 5.40625c-.160156 1.039063-.320312 2.089844-.320312 3.175782v30.9375c0 11.328125 9.207031 20.535156 20.527344 20.535156zm43.472656-22.671875 24 14.398437v91.257813l-24 37.328125-24-37.335938v-91.25zm64 2.144531v-30.945312c0-1.085938-.160156-2.136719-.320312-3.183594l14.871093-5.40625-29.917969 104.71875-8.632812 13.441406v-58.570312c1.152344.199218 2.289062.472656 3.472656.472656 11.320313 0 20.527344-9.207031 20.527344-20.527344zm-16 0c0 3.320313-3.992188 5.589844-6.855469 3.878906l-32.265625-19.351562 32.265625-19.351562c2.863281-1.703126 6.855469.566406 6.855469 3.878906zm-89.144531 3.878906c-2.855469 1.726563-6.855469-.558593-6.855469-3.878906v-30.945312c0-2.496094 2.03125-4.527344 4.527344-4.527344.816406 0 1.625.222656 2.328125.648438l32.265625 19.351562zm80.945312 104.648438h.199219v-.3125l22.726562-35.359375 32.753907-113.40625 23.574219 7.855469-22.070313 88.277344-24.984375 16.664062v40.527344l-75.246094 62.707031zm40.199219-191.382812v25.78125l-25.0625 9.113281c-3.273438-2.214844-7.226562-3.511719-11.464844-3.511719-3.71875 0-7.375 1.015625-10.5625 2.929688l-24.910156 14.941406v-20.457032zm-88 28.796874v20.457032l-24.902344-14.941406c-3.195312-1.914063-6.839844-2.929688-10.570312-2.929688-4.246094 0-8.191406 1.296875-11.472656 3.511719l-25.054688-9.113281v-25.78125zm-164.648438 39.234376.695313-.234376 19.953125 54.160157v221.425781h-48v-237.40625c0-17.242188 10.992188-32.488281 27.351562-37.945312zm52.648438 202.183593c0 35.199219-5.425781 69.984375-16 103.511719v-207.191406c10.609375 33.558594 16 68.351562 16 103.679687zm-80 105.167969v-16h48v16zm189.472656 63.992188c-6.480468 14.582031-20.984375 24.007812-36.945312 24.007812-4.726563 0-9.375-.824219-13.816406-2.433594l-69.933594-25.429687c-2.855469-1.039063-4.777344-3.785157-4.777344-6.824219 0-2.664062.425781-5.296875 1.273438-7.824219l12.238281-36.726562c12.273437-36.808594 18.488281-75.136719 18.488281-113.929688 0-42.632812-7.472656-84.535156-22.214844-124.550781l-30.554687-82.921875 22.480469-7.496094 23.273437 93.082031 23.015625 15.335938v39.277344l64.199219 57.777344-.199219.3125v91.03125c0 28.601562 5.183594 56.441406 15.414062 82.945312zm141.742188-3.847657-69.941406 25.429688c-4.425782 1.601562-9.074219 2.425781-13.800782 2.425781-15.960937 0-30.457031-9.425781-36.945312-24.007812-12.296875-27.65625-18.527344-57.039063-18.527344-87.3125v-68.925782l96-80v-39.472656l23.007812-15.34375 23.273438-93.082031 22.480469 7.496093-30.554688 82.921876c-14.734375 40.015624-22.207031 81.917968-22.207031 124.558593 0 38.800781 6.214844 77.128907 18.488281 113.9375l12.238281 36.726563c.847657 2.519531 1.273438 5.152344 1.273438 7.816406 0 3.039062-1.921875 5.785156-4.785156 6.832031zm4.785156-268.992187v207.183594c-10.574219-33.527344-16-68.320313-16-103.511719 0-35.320313 5.390625-70.113281 16-103.671875zm16 208.847656v-16h48v16zm0 0"/><path d="m208 128h16v16h-16zm0 0"/><path d="m208 184h16v16h-16zm0 0"/><path d="m232 320h16v16h-16zm0 0"/><path d="m232 376h16v16h-16zm0 0"/></svg>