<svg height="512pt" viewBox="0 -69 512 512" width="512pt" xmlns="http://www.w3.org/2000/svg"><path d="m263.78125 172.449219c-4.773438 2.859375-10.730469 2.871093-15.511719.03125l-247.777343-149.050781v24.082031l255.433593 157.671875 256.074219-160.011719v-24.347656zm0 0"/><path d="m264.136719 235.871094c-2.480469 1.582031-5.308594 2.371094-8.136719 2.371094-2.785156 0-5.574219-.765626-8.03125-2.304688l-247.96875-155.027344v277.320313c0 8.367187 6.78125 15.148437 15.148438 15.148437h481.703124c8.367188 0 15.148438-6.78125 15.148438-15.148437v-280.171875zm0 0"/><path d="m255.964844 141.816406 238.914062-141.816406h-477.90625zm0 0"/></svg>