<svg xmlns="http://www.w3.org/2000/svg" version="1.1" xmlns:xlink="http://www.w3.org/1999/xlink" xmlns:svgjs="http://svgjs.com/svgjs" width="512" height="512" x="0" y="0" viewBox="0 0 512 512" style="enable-background:new 0 0 512 512" xml:space="preserve" class=""><circle r="256" cx="256" cy="256" fill="#e2e6e9" shape="circle"></circle><g transform="matrix(0.7,0,0,0.7,76.8000009887852,76.80016450881959)"><path d="M249.401 1.512 202.6 24.91c-2.098.901-4.199 1.501-6.599 1.501-2.4 0-4.501-.601-6.599-1.501l-46.8-23.398c-9.899-4.799-21.598 2.401-21.598 13.5V76.01c0 41.399 33.599 74.998 74.998 74.998S271 117.409 271 76.01V15.012c0-11.099-11.7-18.299-21.599-13.5z" style="" fill="#a6673a" data-original="#a6673a"></path><path d="M271 15.012V76.01c0 41.399-33.599 74.998-74.998 74.998V26.411c2.401 0 4.501-.601 6.599-1.501l46.801-23.398C259.3-3.287 271 3.913 271 15.012z" style="" fill="#99522e" data-original="#99522e"></path><path d="M301.999 392.003v59.999c0 34.203 45.145 59.999 104.998 59.999s104.997-25.795 104.997-59.999v-59.999H301.999z" style="" fill="#fccd34" data-original="#fccd34"></path><path d="M406.996 512c59.853 0 104.997-25.795 104.997-59.999v-59.999H406.996V512z" style="" fill="#f9ad32" data-original="#f9ad32"></path><path d="M301.999 332.004v59.999c0 34.203 45.145 59.999 104.998 59.999s104.997-25.795 104.997-59.999v-59.999H301.999z" style="" fill="#ffde33" data-original="#ffde33"></path><path d="M406.996 452.001c59.853 0 104.997-25.795 104.997-59.999v-59.999H406.996v119.998z" style="" fill="#ffbc33" data-original="#ffbc33"></path><path d="M301.999 272.006v59.999c0 34.203 45.145 59.999 104.998 59.999s104.997-25.795 104.997-59.999v-59.999H301.999z" style="" fill="#f9bc35" data-original="#f9bc35"></path><path d="M406.996 392.003c59.853 0 104.997-25.795 104.997-59.999v-59.999H406.996v119.998z" style="" fill="#f39e31" data-original="#f39e31"></path><path d="M406.996 332.004c-59.853 0-104.998-25.795-104.998-59.999s45.145-59.999 104.998-59.999 104.997 25.795 104.997 59.999-45.144 59.999-104.997 59.999z" style="" fill="#ffde33" data-original="#ffde33"></path><path d="M511.994 272.006c0-34.203-45.146-59.999-104.998-59.999v119.997c59.853 0 104.998-25.795 104.998-59.998z" style="" fill="#ffbc33" data-original="#ffbc33"></path><path d="M316.999 512H75.004C33.652 512 .006 478.354.006 437.002v-59.999c0-107.517 88.478-194.995 195.995-194.995s195.995 87.478 195.995 194.995v59.999c.001 41.352-33.645 74.998-74.997 74.998z" style="" fill="#a6673a" data-original="#a6673a"></path><path d="M316.999 512c41.352 0 74.998-33.646 74.998-74.998v-59.999c0-107.517-88.478-194.995-195.995-194.995V512h120.997zM196.001 151.008c-8.291 0-15-6.709-15-15v-29.999c0-8.291 6.709-15 15-15s15 6.709 15 15v29.999c0 8.292-6.709 15-15 15z" style="" fill="#99522e" data-original="#99522e"></path><path d="M241 377.003c0 17.999-10.8 35.399-29.999 42.298v17.701c0 8.399-6.599 15-15 15s-15-6.601-15-15v-17.701c-7.8-2.699-15.3-6.899-22.199-13.5-6-5.7-6-15.298-.3-21.299 5.7-6.001 15.3-6 21.3-.3 5.4 5.099 11.1 7.8 16.199 7.8 2.1 0 3.9-.601 5.7-1.201 5.7-2.399 9.3-7.798 9.3-13.799 0-8.401-6.599-15-15-15-24.9 0-44.999-20.101-44.999-44.999 0-18.9 12.001-35.699 29.699-42.3h.3v-17.699c0-8.401 6.599-15 15-15s15 6.599 15 15v17.399c9.901 3.301 19.2 9.901 27.298 19.801 5.402 6.301 4.501 15.601-1.8 21-6.299 5.4-15.599 4.499-20.999-1.8-6.301-7.5-13.2-11.4-19.501-11.4-1.8 0-3.6.3-5.099.899-6 2.1-9.901 7.8-9.901 14.101 0 8.399 6.599 15 15 15 24.903 0 45.001 20.1 45.001 44.999z" style="" fill="#ffeacc" data-original="#ffeacc"></path><path d="M236.499 315.205c-6.299 5.4-15.599 4.499-20.999-1.8-6.301-7.5-13.2-11.4-19.501-11.4v-59.999c8.401 0 15 6.599 15 15v17.399c9.901 3.301 19.2 9.901 27.298 19.801 5.404 6.3 4.503 15.6-1.798 20.999zM241 377.003c0 17.999-10.8 35.399-29.999 42.298v17.701c0 8.399-6.599 15-15 15v-59.999c2.1 0 3.9-.601 5.7-1.201 5.7-2.399 9.3-7.798 9.3-13.799 0-8.401-6.599-15-15-15v-29.999c24.901 0 44.999 20.1 44.999 44.999z" style="" fill="#ffdbb2" data-original="#ffdbb2"></path><path d="M211.001 136.009V106.01c0-8.291-6.709-15-15-15v59.999c8.291-.001 15-6.709 15-15z" style="" fill="#804426" data-original="#804426"></path><path d="M226.001 212.007h-59.999c-24.813 0-44.999-21.186-44.999-45.999s20.186-44.999 44.999-44.999h59.999c24.813 0 44.999 20.186 44.999 44.999s-20.185 45.999-44.999 45.999z" style="" fill="#f29a36" data-original="#f29a36" class=""></path><path d="M226.001 121.009h-29.999v90.998h29.999c24.813 0 44.999-21.186 44.999-45.999s-20.185-44.999-44.999-44.999z" style="" fill="#e7812e" data-original="#e7812e"></path></g></svg>