<?xml version="1.0" encoding="iso-8859-1"?>
<!-- Generator: Adobe Illustrator 16.0.0, SVG Export Plug-In . SVG Version: 6.00 Build 0)  -->
<!DOCTYPE svg PUBLIC "-//W3C//DTD SVG 1.1//EN" "http://www.w3.org/Graphics/SVG/1.1/DTD/svg11.dtd">
<svg version="1.1" id="Capa_1" xmlns="http://www.w3.org/2000/svg" xmlns:xlink="http://www.w3.org/1999/xlink" x="0px" y="0px"
	 width="525.172px" height="525.173px" viewBox="0 0 525.172 525.173" style="enable-background:new 0 0 525.172 525.173;"
	 xml:space="preserve">
<g>
	<g>
		<path d="M273.158,332.095c5.045-0.379,12.983,0.069,19.452,5.138c5.717,4.509,8.941,11.556,9.614,20.937h8.662
			c0,0,5.834-15.9-3.72-28.548c-9.577-12.657-19.766-0.317-19.766-0.317s1.242-43.218-11.116-65.129c0,0,14.515-12.671,1.544-41.061
			c-12.965-28.411-19.909-47.84-19.909-47.84s-7.864-16.675,6.954-26.852c14.812-10.195,53.718-18.523,40.738-41.212
			c0,0,9.853-9.724,2.604-34.254c0,0,5.278-20.854-4.909-27.797c0,0-9.722-0.924-17.604,13.439c0,0-18.048,17.592-33.337,10.648
			c0,0-17.135-28.708-48.155-14.354c-31.029,14.354-57.881,38.886-56.945,55.326c0.887,15.695,0.542,68.646,43.934,78.297
			c13-8.401,28.771-22.808,28.771-43.327c0-34.765-21.432-45.826-22.412-46.3c-2.282-1.125-3.244-3.876-2.137-6.179
			c1.115-2.312,3.88-3.271,6.188-2.156c1.125,0.543,27.612,13.765,27.612,54.635c0,28.075-23.001,45.756-38.323,54.437
			c-4.53,7.276-9.614,16.965-9.36,23.562c0.453,11.836,0.453,28.509,0.453,28.509s-33.458,15.831-46.834,40.771
			c-6.516-2.319-22.302-9.544-26.318-25.953c-3.234-13.231,6.996-30.014,14.872-40.499c4.306-5.729,2.973-7.605-3.118-3.836
			c-14.51,8.993-37.189,27.559-33.057,54.062c3.93,25.053,27.729,40.071,43.812,47.482c1.263,4.271,3.262,8.667,6.193,13.175
			c0,0-8.214,5.087-7.815,21.296h103.663c0,0,8.34-7.257,1.241-20.843c-3.505-6.716-8.452-8.891-12.552-9.395
			c-5.498,4.61-13.264,8.419-23.459,11.514c-0.443,0.145-0.896,0.21-1.344,0.21c-1.981,0-3.813-1.288-4.42-3.281
			c-0.744-2.445,0.632-5.031,3.081-5.778c14.925-4.536,23.678-10.565,26.044-17.939c3.454-10.697-6.179-24.526-16.33-37.79
			c-3.841-5.026-8.083-7.672-12.568-7.845c-8.662-0.336-16.358,8.042-16.431,8.121c-1.704,1.896-4.632,2.059-6.534,0.364
			c-1.902-1.703-2.075-4.653-0.371-6.553c0.434-0.48,10.557-11.716,23.634-11.191c7.396,0.273,14.004,4.133,19.611,11.485
			c11.399,14.879,22.112,30.616,18.041,45.309c2.459-2.539,4.606-5.125,5.874-7.439c-8.436-57.909-24.512-72.312-24.92-72.652
			c-1.986-1.578-2.329-4.45-0.779-6.453c1.568-2.04,4.469-2.403,6.499-0.842c1.213,0.922,28.707,23.469,32.949,131h42.281
			c-0.56-6.286-2.562-10.874-6.016-13.618c-6.469-5.129-16.381-2.754-16.465-2.735l-4.39,1.125l-1.211-4.363
			c-0.38-1.34-3.615-14.813-0.416-69.577c2.917-50.152-20.645-56.061-21.77-56.315c-2.492-0.497-4.114-2.907-3.624-5.416
			c0.479-2.492,2.908-4.133,5.426-3.671c1.344,0.264,32.662,6.996,29.218,65.935C271.43,307.714,272.397,325.126,273.158,332.095z"
			/>
		<path d="M319.725,325.28c5.563,7.365,7.206,15.411,7.295,22.146h61.914c10.095,0,18.28-8.172,18.28-18.286v-52.262
			c0-10.095-8.186-18.285-18.28-18.285h-12.191v-13.36c0-10.085-8.199-18.288-18.285-18.288h-26.411
			c-10.085,0-18.285,8.193-18.285,18.288v13.36h-18.006c-0.999,3.127-2.269,5.717-3.515,7.766
			c6.595,15.309,8.719,35.876,9.362,49.616C306.303,315.685,313.299,316.786,319.725,325.28z M325.956,245.252
			c0-3.363,2.735-6.1,6.091-6.1h26.411c3.365,0,6.1,2.737,6.1,6.1v13.357h-38.602V245.252L325.956,245.252z"/>
		<path d="M191.136,409.549c0.651-2.016,1.899-4.526,4.203-6.879C135.32,388.313,63.927,355.126,31.92,311.476
			c-5.92-8.07-15.658-15.453-23.361-15.453c-7.708,0-11.047,7.594-6.499,16.508c35.788,70.305,116.086,123.369,213.162,136.479
			l1.267-3.884l-13.103-9.502C188.795,425.021,189.446,414.729,191.136,409.549z"/>
		<path d="M516.364,293.923c-7.771,0-17.483,7.43-23.271,15.597c-32.566,45.831-106.923,80.559-170.231,94.354
			c1.61,1.988,2.618,3.995,3.164,5.671c1.694,5.18,2.353,15.452-12.204,26.052l-13.143,9.539l1.484,4.592
			c101.205-11.583,185.138-66.095,221.079-139.177C527.649,301.562,524.153,293.923,516.364,293.923z"/>
		<path d="M284.704,441.337l21.118-15.322c11.645-8.484,9.419-15.35-4.998-15.35s-26.089,0-26.089,0l-8.095-24.834
			c-4.441-13.707-11.682-13.707-16.111,0c-4.49,13.722-8.083,24.834-8.083,24.834h-26.12c-14.417,0-16.657,6.879-4.994,15.35
			c11.691,8.457,21.133,15.322,21.133,15.322l-8.093,24.828c-4.441,13.722,1.416,17.969,13.096,9.503
			c11.635-8.48,21.098-15.341,21.098-15.341l21.116,15.341c11.653,8.471,17.506,4.219,13.049-9.503
			C288.292,452.439,284.704,441.337,284.704,441.337z"/>
	</g>
</g>
<g>
</g>
<g>
</g>
<g>
</g>
<g>
</g>
<g>
</g>
<g>
</g>
<g>
</g>
<g>
</g>
<g>
</g>
<g>
</g>
<g>
</g>
<g>
</g>
<g>
</g>
<g>
</g>
<g>
</g>
</svg>
