<svg height="405pt" viewBox="-12 0 405 405.18521" width="405pt" xmlns="http://www.w3.org/2000/svg"><path d="m36.519531 287.097656c-32.730469-29.492187-37.789062-78.984375-11.703125-114.488281l20.367188-27.714844 77.359375 56.839844-28.425781 38.679687c20.539062 40.089844 58.75 68.171876 103.144531 75.792969l28.425781-38.679687 77.359375 56.800781-20.359375 27.75c-26.089844 35.507813-74.835938 45.46875-112.761719 23.042969-47.617187-28.160156-92.304687-60.996094-133.40625-98.023438zm0 0" fill="#85bc94"/><path d="m268.222656 216v48l48-48-16-8h-16zm0 0" fill="#fbd699"/><path d="m212.222656 8h112c26.507813 0 48 21.492188 48 48v112c0 26.507812-21.492187 48-48 48h-112c-26.507812 0-48-21.492188-48-48v-112c0-26.507812 21.492188-48 48-48zm0 0" fill="#fbedbf"/><path d="m340.222656 112c0 39.765625-32.234375 72-72 72s-72-32.234375-72-72 32.234375-72 72-72 72 32.234375 72 72zm0 0" fill="#c0f5f9"/><path d="m268.222656 32c-44.183594 0-80 35.816406-80 80s35.816406 80 80 80 80-35.816406 80-80c-.046875-44.164062-35.835937-79.953125-80-80zm-64 80c.019532-3.269531.285156-6.53125.800782-9.761719l19.792968-4.40625c3.023438-.671875 6.078125-1.230469 9.140625-1.769531-.773437 10.613281-.773437 21.261719 0 31.875-3.0625-.539062-6.109375-1.097656-9.140625-1.769531l-19.792968-4.40625c-.515626-3.230469-.78125-6.492188-.800782-9.761719zm45.976563-18.023438c11.992187-1.078124 24.054687-1.078124 36.046875 0 1.074218 11.992188 1.074218 24.054688 0 36.046876-11.992188 1.078124-24.054688 1.078124-36.046875 0-1.074219-11.992188-1.074219-24.054688 0-36.046876zm52.261719 2.085938c3.066406.539062 6.113281 1.097656 9.144531 1.769531l19.792969 4.40625c1.097656 6.460938 1.097656 13.0625 0 19.523438l-19.792969 4.40625c-3.023438.671875-6.078125 1.230469-9.144531 1.769531.777343-10.613281.777343-21.261719 0-31.875zm23.53125-11.421875-10.914063-2.402344c-4.800781-1.054687-9.597656-1.886719-14.449219-2.613281-.726562-4.847656-1.597656-9.679688-2.621094-14.449219l-2.402343-10.910156c13.316406 6.335937 24.042969 17.0625 30.386719 30.375zm-48-35.816406 4.398437 19.785156c.671875 3.03125 1.230469 6.09375 1.769531 9.160156-10.613281-.777343-21.265625-.777343-31.875 0 .539063-3.066406 1.097656-6.128906 1.769532-9.160156l4.398437-19.785156c6.46875-1.097657 13.070313-1.097657 19.539063 0zm-37.121094 5.40625-2.402344 10.914062c-1.054688 4.800781-1.894531 9.597657-2.621094 14.449219-4.847656.726562-9.679687 1.558594-14.449218 2.613281l-10.910157 2.402344c6.34375-13.308594 17.070313-24.035156 30.382813-30.378906zm-30.402344 85.128906 10.914062 2.402344c4.800782 1.054687 9.601563 1.886719 14.449219 2.613281.726563 4.847656 1.597657 9.679688 2.621094 14.449219l2.402344 10.910156c-13.320313-6.335937-24.054688-17.058594-30.402344-30.375zm48 35.816406-4.398438-19.785156c-.671874-3.03125-1.230468-6.085937-1.769531-9.152344 5.304688.386719 10.617188.648438 15.9375.648438 5.320313 0 10.632813-.261719 15.9375-.648438-.539062 3.066407-1.097656 6.121094-1.769531 9.152344l-4.398438 19.785156c-6.46875 1.097657-13.070312 1.097657-19.539062 0zm37.121094-5.40625 2.402344-10.914062c1.054687-4.800781 1.894531-9.597657 2.621093-14.398438 4.847657-.738281 9.679688-1.601562 14.449219-2.625l10.910156-2.398437c-6.355468 13.296875-17.089844 24.003906-30.398437 30.335937zm0 0" fill="#6fbbc6"/><path d="m45.183594 144.882812 77.359375 56.847657-28.421875 38.679687-77.363282-56.847656zm0 0" fill="#6b9777"/><path d="m225.6875 277.53125 77.359375 56.84375-28.421875 38.679688-77.359375-56.84375zm0 0" fill="#6b9777"/><path d="m348.222656 112c0-44.183594-35.816406-80-80-80s-80 35.816406-80 80 35.816406 80 80 80c44.164063-.046875 79.953125-35.835938 80-80zm-89.769531 63.199219-4.398437-19.785157c-.671876-3.03125-1.230469-6.085937-1.769532-9.148437 5.304688.382813 10.617188.644531 15.9375.644531 5.320313 0 10.632813-.261718 15.9375-.644531-.539062 3.0625-1.097656 6.117187-1.769531 9.148437l-4.398437 19.785157c-6.46875 1.097656-13.070313 1.097656-19.539063 0zm-54.230469-63.199219c.019532-3.269531.285156-6.53125.800782-9.761719l19.792968-4.40625c3.023438-.671875 6.078125-1.230469 9.140625-1.769531-.773437 10.613281-.773437 21.261719 0 31.875-3.0625-.539062-6.109375-1.097656-9.140625-1.769531l-19.792968-4.40625c-.515626-3.230469-.78125-6.492188-.800782-9.761719zm45.976563-18.023438c11.992187-1.078124 24.054687-1.078124 36.046875 0 1.074218 11.992188 1.074218 24.054688 0 36.046876-11.992188 1.078124-24.054688 1.078124-36.046875 0-1.074219-11.992188-1.074219-24.054688 0-36.046876zm82.023437 18.023438c-.019531 3.269531-.285156 6.53125-.800781 9.761719l-19.792969 4.40625c-3.023437.671875-6.078125 1.230469-9.140625 1.769531.773438-10.613281.773438-21.261719 0-31.875 3.0625.539062 6.109375 1.097656 9.140625 1.769531l19.792969 4.40625c.515625 3.230469.78125 6.492188.800781 9.761719zm-36.648437 57.769531 2.398437-10.914062c1.058594-4.800781 1.898438-9.597657 2.625-14.398438 4.847656-.738281 9.679688-1.601562 14.449219-2.625l10.910156-2.398437c-6.351562 13.292968-17.078125 24-30.382812 30.335937zm30.398437-85.128906-10.910156-2.402344c-4.800781-1.054687-9.601562-1.886719-14.449219-2.613281-.726562-4.847656-1.597656-9.679688-2.621093-14.449219l-2.402344-10.910156c13.320312 6.335937 24.054687 17.058594 30.402344 30.375zm-48-35.816406 4.402344 19.785156c.671875 3.03125 1.230469 6.09375 1.769531 9.160156-10.613281-.777343-21.265625-.777343-31.875 0 .535157-3.066406 1.097657-6.128906 1.769531-9.160156l4.398438-19.785156c6.464844-1.097657 13.070312-1.097657 19.535156 0zm-37.117187 5.40625-2.402344 10.914062c-1.054687 4.800781-1.894531 9.597657-2.621094 14.449219-4.847656.726562-9.679687 1.558594-14.449219 2.613281l-10.914062 2.402344c6.351562-13.3125 17.085938-24.039063 30.402344-30.378906zm-30.402344 85.128906 10.914063 2.402344c4.800781 1.054687 9.597656 1.886719 14.449218 2.613281.726563 4.847656 1.597656 9.679688 2.621094 14.449219l2.402344 10.910156c-13.316406-6.335937-24.042969-17.0625-30.386719-30.375zm0 0"/><path d="m265.160156 271.390625c.96875.40625 2.011719.613281 3.0625.609375 2.121094 0 4.15625-.84375 5.65625-2.34375l45.65625-45.65625h4.6875c30.914063-.035156 55.964844-25.085938 56-56v-112c-.035156-30.914062-25.085937-55.9648438-56-56h-112c-30.914062.0351562-55.964844 25.085938-56 56v112c.035156 30.914062 25.085938 55.964844 56 56h48v40c0 3.234375 1.945313 6.152344 4.9375 7.390625zm11.0625-26.703125v-20.6875h20.6875zm-104-76.6875v-112c.027344-22.082031 17.917969-39.972656 40-40h112c22.082032.027344 39.972656 17.917969 40 40v112c-.027344 22.082031-17.917968 39.972656-40 40h-112c-22.082031-.027344-39.972656-17.917969-40-40zm0 0"/><path d="m43.972656 136.976562c-2.101562.328126-3.988281 1.476563-5.238281 3.199219l-28.421875 38.65625c-1.050781 1.476563-1.554688 3.273438-1.425781 5.078125-17.449219 37.3125-8.394531 81.644532 22.28125 109.128906 41.488281 37.375 86.59375 70.527344 134.65625 98.960938 35.28125 21.089844 80.222656 16.539062 110.558593-11.199219 1.867188-.394531 3.53125-1.449219 4.6875-2.96875l28.425782-38.679687c1.257812-1.710938 1.789062-3.855469 1.46875-5.957032-.324219-2.101562-1.46875-3.988281-3.183594-5.242187l-77.359375-56.847656c-1.710937-1.261719-3.851563-1.792969-5.953125-1.46875-2.101562.320312-3.988281 1.464843-5.246094 3.179687l-25.398437 34.582032c-38.222657-8.097657-71.105469-32.257813-90.257813-66.308594l25.441406-34.617188c1.261719-1.710937 1.789063-3.855468 1.46875-5.957031-.324218-2.101563-1.46875-3.988281-3.183593-5.242187l-77.359375-56.847657c-1.714844-1.257812-3.859375-1.777343-5.960938-1.449219zm247.890625 199.113282-15.640625 21.335937c-1.105468 1.496094-2.289062 2.894531-3.480468 4.285157l-64.253907-47.199219 18.933594-25.800781zm-97.921875-12.402344 67.082032 49.289062c-25.183594 19.433594-59.679688 21.519532-87.015626 5.253907-47.15625-27.890625-91.417968-60.414063-132.128906-97.078125-23.699218-21.226563-32.015625-54.777344-20.976562-84.617188l67.0625 49.28125c21.664062 40.707032 60.65625 69.359375 105.976562 77.871094zm-101.535156-94.464844-64.253906-47.199218c1-1.597657 1.992187-3.152344 3.109375-4.671876l15.625-21.261718 64.472656 47.375zm0 0"/></svg>