<?xml version="1.0" encoding="iso-8859-1"?>
<!-- Generator: Adobe Illustrator 19.0.0, SVG Export Plug-In . SVG Version: 6.00 Build 0)  -->
<svg version="1.1" id="Capa_1" xmlns="http://www.w3.org/2000/svg" xmlns:xlink="http://www.w3.org/1999/xlink" x="0px" y="0px"
	 viewBox="0 0 512 512" style="enable-background:new 0 0 512 512;" xml:space="preserve">
<path style="fill:#41489D;" d="M461.994,153.986H42.006c-17.672,0-31.999,14.327-31.999,31.999l0,0
	c0,17.672,14.327,31.999,31.999,31.999H256h151.996c22.09,0,39.999,17.908,39.999,39.999v204.018
	c0,21.933-17.655,39.734-39.528,39.987h53.527c22.09,0,39.999-17.908,39.999-39.999V193.985
	C501.993,171.895,484.085,153.986,461.994,153.986z"/>
<path style="fill:#2E9DE3;" d="M10.007,188.473v273.528c0,22.09,17.908,39.999,39.999,39.999h357.99
	c22.09,0,39.999-17.908,39.999-39.999V257.983c0-22.09-17.908-39.999-39.999-39.999H39.518
	C23.22,217.984,10.007,204.772,10.007,188.473L10.007,188.473z"/>
<path style="fill:#ADE5FF;" d="M365.69,307.829h136.303v65.998v17.999c0,11.046-8.954,19.999-19.999,19.999H254
	c-28.718,0-51.998-23.28-51.998-51.998l0,0c0-28.718,23.28-51.998,51.998-51.998h30.306H365.69z"/>
<circle style="fill:#2E9DE3;" cx="253.613" cy="359.889" r="16"/>
<polygon style="fill:#62CD4D;" points="385.244,217.659 447.994,154.909 303.088,10.002 95.43,217.659 "/>
<path style="fill:#D8FB93;" d="M338.394,217.933l41.273-41.273c-12.013-12.013-12.013-31.489,0-43.503l-54.827-54.827
	c-12.013,12.013-31.489,12.013-43.503,0L141.733,217.933H338.394z"/>
<path style="fill:#62CD4D;" d="M278.227,217.805c0-20.829-16.885-37.715-37.715-37.715s-37.715,16.886-37.715,37.715"/>
<polygon style="fill:#A0E557;" points="95.43,217.659 262.868,50.221 112.768,10.002 57.127,217.659 "/>
<path style="fill:#D8FB93;" d="M235.977,77.113L165.77,58.3c-4.397,16.41-21.264,26.148-37.674,21.751L91.224,217.659h4.206
	L235.977,77.113z"/>
<path d="M253.614,333.891c-14.336,0-25.999,11.663-25.999,25.999c0,14.337,11.664,25.999,25.999,25.999s25.999-11.663,25.999-25.999
	C279.613,345.554,267.951,333.891,253.614,333.891z M253.614,365.89c-3.309,0-6-2.691-6-6c0-3.309,2.691-6,6-6s6,2.691,6,6
	C259.614,363.199,256.923,365.89,253.614,365.89z"/>
<path d="M326.808,317.818c2.63,0,5.21-1.069,7.07-2.93c1.86-1.859,2.93-4.439,2.93-7.07c0-2.63-1.07-5.21-2.93-7.069
	c-1.86-1.86-4.44-2.931-7.07-2.931c-2.63,0-5.21,1.07-7.07,2.931c-1.87,1.859-2.93,4.439-2.93,7.069c0,2.631,1.06,5.211,2.93,7.07
	C321.598,316.75,324.178,317.818,326.808,317.818z"/>
<path d="M461.994,143.987h-10.781L310.158,2.932c-3.905-3.905-10.238-3.905-14.142,0L259.88,39.069L115.356,0.344
	c-5.335-1.431-10.819,1.736-12.248,7.071L66.515,143.987H42.006c-23.158,0-41.999,18.84-41.999,41.999
	c0,0.555,0.021,1.106,0.042,1.656c-0.023,0.275-0.042,0.551-0.042,0.832v273.528C0.007,489.57,22.437,512,50.006,512h357.99
	c0.155,0,0.307-0.01,0.462-0.012h53.536c27.569,0,49.999-22.429,49.999-49.999V193.985
	C511.992,166.415,489.563,143.987,461.994,143.987z M491.993,193.985v80.143c0,13.069-10.633,23.701-23.701,23.701h-10.298v-39.846
	c0-27.221-21.869-49.415-48.959-49.973l44.025-44.025h8.934C478.535,163.986,491.993,177.444,491.993,193.985z M366.402,175.784
	l-31.877,31.877H287.13c-4.665-21.451-23.79-37.57-46.619-37.57s-41.954,16.119-46.619,37.57h-27.745L282.213,91.595
	c12.811,7.636,28.937,7.636,41.748,0l42.441,42.441C358.767,146.845,358.767,162.974,366.402,175.784z M214.728,207.661
	c4.058-10.277,14.083-17.57,25.784-17.57c11.702,0,21.725,7.294,25.784,17.57H214.728z M151.348,147.6l-42.346,42.346l26.482-98.833
	c7.261,0.117,14.484-1.737,20.953-5.474c6.47-3.735,11.676-9.046,15.217-15.409l45.005,12.059L151.348,147.6z M303.088,24.144
	L433.854,154.91l-52.75,52.75h-18.294l23.928-23.929c3.905-3.905,3.905-10.237,0-14.142c-8.095-8.095-8.095-21.265,0-29.36
	c3.905-3.905,3.905-10.237,0-14.143L331.91,71.26c-3.905-3.905-10.237-3.905-14.143,0c-8.095,8.096-21.266,8.096-29.36,0
	c-3.905-3.905-10.238-3.905-14.142,0l-136.4,136.401h-18.293L269.94,57.293c0.001-0.001,0.002-0.003,0.003-0.004L303.088,24.144z
	 M119.839,22.25L243.55,55.398L232.989,65.96l-64.63-17.317c-2.563-0.687-5.292-0.327-7.588,0.999
	c-2.297,1.326-3.973,3.51-4.659,6.072c-1.436,5.356-4.871,9.833-9.673,12.606c-4.803,2.773-10.398,3.509-15.755,2.074
	c-5.333-1.43-10.818,1.736-12.247,7.071L83.463,207.985H70.071L119.839,22.25z M42.006,163.986h19.149l-11.79,43.999h-7.36
	c-12.131,0-21.999-9.869-21.999-21.999S29.877,163.986,42.006,163.986z M20.007,462.001V221.742
	c6.403,3.954,13.938,6.242,21.999,6.242h365.989c16.542,0,29.999,13.458,29.999,29.999v39.846H365.69c-5.523,0-10,4.478-10,10
	c0,5.522,4.477,10,10,10h102.602c8.733,0,16.868-2.585,23.701-7.015v63.013c0,15.439-12.561,27.999-27.999,27.999H254
	c-23.158,0-41.999-18.84-41.999-41.999c0-23.158,18.84-41.999,41.999-41.999h30.306c5.523,0,10-4.478,10-10c0-5.522-4.477-10-10-10
	H254c-34.186,0-61.998,27.812-61.998,61.998s27.812,61.998,61.998,61.998h183.995v40.176c0,16.387-13.209,29.75-29.537,29.999
	H68.005V379.39c0-5.522-4.477-10-10-10s-10,4.478-10,10v112.536C32.394,490.892,20.007,477.87,20.007,462.001z M461.994,491.988
	h-14.018c6.287-8.36,10.018-18.745,10.018-29.987v-40.176h6c10.444,0,20.111-3.363,27.999-9.049v49.213
	C491.993,478.531,478.535,491.988,461.994,491.988z"/>
<path d="M58.006,350.388c2.63,0,5.21-1.07,7.07-2.93c1.86-1.86,2.93-4.44,2.93-7.07c0-2.63-1.07-5.21-2.93-7.07
	c-1.86-1.859-4.44-2.93-7.07-2.93c-2.63,0-5.21,1.07-7.07,2.93c-1.86,1.86-2.93,4.44-2.93,7.07c0,2.63,1.07,5.21,2.93,7.07
	C52.796,349.318,55.376,350.388,58.006,350.388z"/>
<g>
</g>
<g>
</g>
<g>
</g>
<g>
</g>
<g>
</g>
<g>
</g>
<g>
</g>
<g>
</g>
<g>
</g>
<g>
</g>
<g>
</g>
<g>
</g>
<g>
</g>
<g>
</g>
<g>
</g>
</svg>
